<svg width="14" height="18" fill="none" xmlns="http://www.w3.org/2000/svg"><path d="M.147 6.771a28.194 28.194 0 012.8 6.312c.502 1.438.973 2.875 1.386 4.227.412 1.351 2.947.546 3.227-.561a65.233 65.233 0 011.68-6.47 39.135 39.135 0 011.916-5.017c.349-.741.743-1.461 1.179-2.157.178-.276.375-.54.59-.79l.338-.389s.442-.388.177-.172c.501-.417.87-1.078.206-1.524a2.213 2.213 0 00-2.299.215A16.044 16.044 0 007.06 7.461a63.148 63.148 0 00-2.373 7.88c-.132.56-.265 1.12-.383 1.681l3.228-.56a82.777 82.777 0 00-1.474-4.314A31.047 31.047 0 003.11 5.506C2.358 4.313-.707 5.463.147 6.771z" fill="#FF5F4E"/></svg>