<svg width="170" height="66" fill="none" xmlns="http://www.w3.org/2000/svg"><path d="M60.963 12.338a31.843 31.843 0 00-1.503-5.533 31.39 31.39 0 00-2.402-5.223A3.227 3.227 0 0053.661.06a38.829 38.829 0 00-5.496 1.586 38.464 38.464 0 00-5.237 2.306 3.227 3.227 0 00-1.637 3.347 32.05 32.05 0 001.508 5.532 31.346 31.346 0 002.383 5.22 3.226 3.226 0 003.398 1.525 38.98 38.98 0 005.495-1.59 38.944 38.944 0 005.242-2.306 3.227 3.227 0 001.633-3.347" fill="#E53424"/><path d="M81.558 3.334a39.188 39.188 0 00-5.399-1.9 38.846 38.846 0 00-5.62-1.17 3.227 3.227 0 00-3.273 1.774 32.13 32.13 0 00-2.001 5.39 31.684 31.684 0 00-1.079 5.643 3.2 3.2 0 001.881 3.227c1.75.76 3.552 1.39 5.394 1.886 1.843.525 3.72.913 5.62 1.162a3.195 3.195 0 003.274-1.775 31.186 31.186 0 002-5.39c.534-1.841.9-3.727 1.093-5.634a3.227 3.227 0 00-1.88-3.227" fill="#F9BB25"/><path d="M106.173 12.338a31.524 31.524 0 00-1.503-5.533 31.838 31.838 0 00-2.398-5.223A3.229 3.229 0 0098.874.06a42.778 42.778 0 00-10.737 3.892 3.227 3.227 0 00-1.632 3.347 31.54 31.54 0 001.503 5.532 31.742 31.742 0 002.397 5.22 3.227 3.227 0 003.403 1.525 38.777 38.777 0 005.49-1.59 38.651 38.651 0 005.243-2.306 3.228 3.228 0 001.632-3.347" fill="#4AAC34"/><path d="M126.786 3.334a43.31 43.31 0 00-11.019-3.07 3.226 3.226 0 00-3.273 1.774 31.835 31.835 0 00-1.997 5.39 31.851 31.851 0 00-1.083 5.643 3.226 3.226 0 001.881 3.227 38.87 38.87 0 005.394 1.9c1.838.52 3.712.903 5.606 1.148a3.2 3.2 0 003.274-1.775 31.723 31.723 0 001.996-5.39 31.732 31.732 0 001.065-5.634 3.226 3.226 0 00-1.881-3.227" fill="#32BDEF"/><path opacity=".5" d="M57.819 53.462a.664.664 0 01.65.655v11.024a.66.66 0 01-.65.65h-.724a.66.66 0 01-.65-.65v-.153a3.008 3.008 0 01-2.273.969 3.504 3.504 0 01-2.71-1.112 4.043 4.043 0 01-1.024-2.904 4.103 4.103 0 011.217-3.066 4.27 4.27 0 013.135-1.18 3.178 3.178 0 011.655.387V54.14a.664.664 0 01.65-.654l.724-.024zm-1.383 6.589a2.904 2.904 0 00-1.568-.461 2.172 2.172 0 00-2.273 2.272c0 1.356.863 2.2 1.992 2.2a2.536 2.536 0 001.844-.812l.005-3.2zm9.815 3.909a.885.885 0 01.406-.124.64.64 0 01.512.3l.157.23c.07.103.107.225.106.35a.586.586 0 01-.282.53 4.915 4.915 0 01-2.66.738 4.213 4.213 0 01-3.08-1.143 3.962 3.962 0 01-1.18-3.01 4.172 4.172 0 011.143-2.979 4.026 4.026 0 013.048-1.18 3.735 3.735 0 012.66 1.023 3.545 3.545 0 011.093 2.66c.012.154.012.308 0 .462a.784.784 0 01-.687.631h-5.164c.161 1.18 1.111 1.844 2.38 1.844a3.477 3.477 0 001.548-.332zm-.106-2.872v-.032a1.657 1.657 0 00-1.812-1.692 1.936 1.936 0 00-2.079 1.724h3.891zm8.28 3.49a.61.61 0 01.088.3.599.599 0 01-.286.571 3.886 3.886 0 01-1.991.526c-1.743 0-2.467-1.074-2.467-3.186v-6.454a.664.664 0 01.655-.65h.719a.663.663 0 01.655.65v1.549h1.9a.664.664 0 01.654.654v.6a.664.664 0 01-.655.65h-1.913v2.886c0 .954.318 1.43.95 1.43a8.37 8.37 0 00.968-.18.613.613 0 01.548.354l.175.3zm3.767-5.833a3.163 3.163 0 012.485-1.018c1.18 0 2.006.511 2.305 1.267a3.17 3.17 0 012.68-1.267c1.686 0 2.535.968 2.535 2.886v4.527a.663.663 0 01-.655.65h-.72a.664.664 0 01-.654-.65v-3.997c0-1.005-.46-1.517-1.355-1.517a1.682 1.682 0 00-1.637.922v4.597a.66.66 0 01-.65.65h-.724a.66.66 0 01-.65-.65v-4.15a1.24 1.24 0 00-1.323-1.383 1.843 1.843 0 00-1.655.849v4.665a.66.66 0 01-.65.65H76.8a.66.66 0 01-.65-.65v-6.593a.665.665 0 01.65-.654h.724a.664.664 0 01.668.654v.212zm14.583-3.733a1.191 1.191 0 01-1.162 1.268 1.207 1.207 0 01-1.268-1.268 1.19 1.19 0 011.268-1.176 1.152 1.152 0 011.162 1.176zm-.844 2.854a.664.664 0 01.65.654v6.62a.659.659 0 01-.65.65h-.724a.66.66 0 01-.65-.65v-6.606a.663.663 0 01.65-.655l.724-.013zm6.496 1.76a1.351 1.351 0 00-1.268.848v4.666a.66.66 0 01-.65.65h-.724a.66.66 0 01-.65-.65v-6.607a.663.663 0 01.65-.654h.724a.674.674 0 01.65.705 2.26 2.26 0 011.812-.844c.236-.01.47.032.687.125a.507.507 0 01.373.507.567.567 0 01-.055.249l-.263.562a.766.766 0 01-.723.512.792.792 0 01-.226 0 2.347 2.347 0 00-.337-.037m5.265 4.814a1.354 1.354 0 01-1.286 1.406A1.386 1.386 0 01101 64.472a1.383 1.383 0 011.406-1.305 1.33 1.33 0 011.286 1.305zm5.215-4.846a1.345 1.345 0 00-1.268.848v4.666a.667.667 0 01-.655.65h-.719a.664.664 0 01-.655-.65v-6.607a.664.664 0 01.655-.654h.719a.68.68 0 01.655.705 2.258 2.258 0 011.812-.844c.235-.01.47.033.687.125a.505.505 0 01.368.507.626.626 0 01-.05.249l-.263.562a.766.766 0 01-.724.512.844.844 0 01-.23 0 2.312 2.312 0 00-.332-.037m4.753 2.628c0 1.218.512 1.812 1.512 1.812a2.173 2.173 0 001.78-.968v-4.596a.663.663 0 01.655-.655h.719a.662.662 0 01.654.655v6.62a.662.662 0 01-.654.65h-.719a.663.663 0 01-.655-.65v-.318a3.11 3.11 0 01-2.536 1.162c-1.637 0-2.766-1.107-2.766-3.274v-4.19a.663.663 0 01.65-.655h.724a.663.663 0 01.65.655l-.014 3.752z" fill="#316CB3"/><path d="M4.228 48.133a1.134 1.134 0 01-1.148 1.148H1.148a1.111 1.111 0 01-.816-.332A1.111 1.111 0 010 48.133v-4.952a1.111 1.111 0 01.332-.816 1.11 1.11 0 01.816-.332h.604a5.53 5.53 0 00.696-1.24c.21-.515.38-1.045.512-1.586a19.14 19.14 0 00.346-1.78c.087-.612.157-1.221.198-1.843l.12-1.78a1.19 1.19 0 01.378-.816 1.157 1.157 0 01.83-.332h8.488a1.136 1.136 0 011.148 1.148v8.23h1.115a1.136 1.136 0 011.148 1.147v4.952a1.132 1.132 0 01-1.148 1.148h-1.931a1.136 1.136 0 01-1.148-1.148v-1.872h-8.3l.024 1.872zm5.708-11.236H7.912l-.074.544a15.55 15.55 0 01-.572 2.84 7.256 7.256 0 01-.788 1.752h3.444l.014-5.136zm12.683 4.081a2.434 2.434 0 001.194 1.42 4.14 4.14 0 001.978.46c.444.004.888-.027 1.328-.091a5.648 5.648 0 001.12-.3c.212-.081.437-.123.664-.125a1.106 1.106 0 011.065.627l.46.964c.081.17.122.356.12.544a1.088 1.088 0 01-.543 1 8.381 8.381 0 01-2.384.923c-.76.142-1.532.213-2.305.212a8.588 8.588 0 01-3.048-.517 6.325 6.325 0 01-3.799-3.697 7.801 7.801 0 01-.53-2.928 7.261 7.261 0 01.53-2.766 7.035 7.035 0 011.48-2.278 6.7 6.7 0 012.305-1.54 7.927 7.927 0 013.048-.562 6.914 6.914 0 012.494.461 6.414 6.414 0 013.555 3.296c.37.826.554 1.724.54 2.628a8.62 8.62 0 01-.08 1.383c-.052.243-.185.46-.377.618a.963.963 0 01-.65.29l-8.165-.022zm4.744-3.025a1.845 1.845 0 00-.558-1.281 2.173 2.173 0 00-1.646-.59 2.766 2.766 0 00-1.752.46 3.06 3.06 0 00-.922 1.384l4.878.027zm10.811 8.308a1.133 1.133 0 01-1.148-1.148v-7.911H34.26a1.145 1.145 0 01-1.148-1.148v-2.236a1.143 1.143 0 011.148-1.148h10.074a1.136 1.136 0 011.148 1.148v2.236a1.134 1.134 0 01-1.148 1.148h-2.767v7.911a1.134 1.134 0 01-1.148 1.148h-2.245zm18.303-9.179a4.65 4.65 0 00-2.074-.544c-.361 0-.72.06-1.06.18a2.85 2.85 0 00-1.6 1.48c-.18.398-.268.83-.259 1.267-.006.43.087.854.272 1.24a3.02 3.02 0 001.646 1.499 3.13 3.13 0 001.075.194 3.942 3.942 0 002.111-.664 1.47 1.47 0 01.848-.272 1.12 1.12 0 01.922.484l.923 1.24c.156.209.24.463.24.724a1.158 1.158 0 01-.485.968 7.258 7.258 0 01-2.563 1.415 8.696 8.696 0 01-2.305.337 9.072 9.072 0 01-3.126-.517 6.799 6.799 0 01-2.388-1.447 6.274 6.274 0 01-1.494-2.268 7.786 7.786 0 01-.53-2.928 7.43 7.43 0 01.516-2.766 6.916 6.916 0 011.462-2.278 6.807 6.807 0 012.282-1.54 7.464 7.464 0 012.927-.562c.823-.008 1.644.074 2.448.244.824.202 1.605.55 2.306 1.028a1.231 1.231 0 01.663 1.056.983.983 0 01-.184.572l-.876 1.452a1.134 1.134 0 01-1.023.604 1.258 1.258 0 01-.664-.18m10.138 2.665v5.348a1.136 1.136 0 01-1.148 1.148H63.24a1.133 1.133 0 01-1.148-1.148V33.818a1.132 1.132 0 011.148-1.148h2.227a1.136 1.136 0 011.148 1.148v4.772l3.504-5.164a1.91 1.91 0 01.617-.544c.244-.14.521-.213.803-.212h2.111a1.102 1.102 0 01.848.364 1.139 1.139 0 01.097 1.526l-3.2 4.228 1.48 2.024a3.125 3.125 0 001.633 1.3c.35.043.676.206.922.46a1.7 1.7 0 01.226.997v1.844a.963.963 0 01-.272.664c-.162.191-.386.32-.632.364l-.461.041h-.461a5.777 5.777 0 01-1.13-.12 4.546 4.546 0 01-1.18-.46 5.365 5.365 0 01-1.175-.895 9.117 9.117 0 01-1.19-1.466l-2.531-3.776zm22.107 6.496a1.133 1.133 0 01-1.134-1.148v-5.942l-4.334 6.334c-.151.214-.34.398-.558.544-.22.145-.479.22-.742.212h-2.596a1.136 1.136 0 01-1.148-1.148V33.818a1.132 1.132 0 011.148-1.148h2.236a1.136 1.136 0 011.148 1.148v5.952l4.32-6.344c.144-.209.322-.393.526-.544.214-.145.469-.22.728-.212h2.628a1.135 1.135 0 011.143 1.148v11.295a1.132 1.132 0 01-1.143 1.148h-2.222zm17.215 0a1.139 1.139 0 01-1.065-.706 1.132 1.132 0 01-.083-.442V39.17l-4.32 6.344c-.151.214-.34.398-.558.544-.22.145-.479.22-.742.212h-2.596a1.134 1.134 0 01-1.148-1.157V33.818a1.132 1.132 0 011.148-1.148h2.236a1.136 1.136 0 011.148 1.148v5.947l4.316-6.34c.15-.21.333-.393.544-.543.22-.15.484-.225.751-.212h2.628a1.136 1.136 0 011.143 1.148v11.295a1.127 1.127 0 01-.33.815 1.136 1.136 0 01-.813.333h-2.259zm-.664-19.539a1.767 1.767 0 011.383.512c.317.368.482.843.461 1.328a2.39 2.39 0 01-1.162 1.996c-.774.538-1.927.809-3.457.812-1.694 0-2.907-.27-3.638-.812a2.417 2.417 0 01-1.107-1.991c-.02-.485.145-.96.462-1.328a1.719 1.719 0 011.36-.517c.409-.034.817.08 1.148.323.244.22.421.505.511.82.088.255.233.485.424.674a1.152 1.152 0 00.844.267.966.966 0 00.756-.267c.173-.197.306-.426.392-.673.091-.316.268-.6.512-.82a1.64 1.64 0 011.12-.324m17.93 18.392a1.133 1.133 0 01-1.148 1.148h-2.236a1.139 1.139 0 01-.816-.333 1.13 1.13 0 01-.332-.816V33.819a1.132 1.132 0 011.148-1.148h2.144a1.792 1.792 0 011.383.696l3.476 3.924 3.2-3.896a2.22 2.22 0 01.604-.526c.227-.134.487-.202.751-.198h2.024a1.142 1.142 0 01.816.332 1.132 1.132 0 01.332.816v11.296a1.13 1.13 0 01-1.148 1.148h-2.236a1.13 1.13 0 01-1.064-.707 1.133 1.133 0 01-.084-.441V39.58l-2.568 2.9a1.042 1.042 0 01-.784.364 1.064 1.064 0 01-.783-.332l-2.688-2.932.009 5.532zm25.186 1.147a1.134 1.134 0 01-1.148-1.148v-5.942l-4.338 6.334c-.151.214-.34.398-.558.544a1.28 1.28 0 01-.737.212h-2.601a1.134 1.134 0 01-1.148-1.148V33.819a1.132 1.132 0 011.148-1.148h2.236a1.132 1.132 0 011.148 1.148v5.952l4.32-6.344c.15-.21.334-.394.544-.544a1.21 1.21 0 01.724-.212h2.628a1.13 1.13 0 011.064.707c.057.14.086.29.084.441v11.296a1.132 1.132 0 01-1.148 1.148h-2.218zm11.236 4.897a1.133 1.133 0 01-1.148 1.148h-2.236a1.139 1.139 0 01-.816-.332 1.13 1.13 0 01-.332-.816v-17.34a1.132 1.132 0 011.148-1.148h2.383a.98.98 0 011.001.996 5.138 5.138 0 011.54-.95 5.686 5.686 0 012.236-.41 5.99 5.99 0 012.489.516 5.36 5.36 0 011.909 1.448 6.95 6.95 0 011.222 2.204 8.41 8.41 0 01.438 2.766 7.866 7.866 0 01-.526 2.886 7.207 7.207 0 01-1.48 2.337 6.825 6.825 0 01-2.305 1.572 7.596 7.596 0 01-3.006.577c-.463 0-.925-.036-1.383-.106a4.955 4.955 0 01-1.162-.318l.028 4.97zm0-9.272c.294.182.615.319.95.406.381.081.771.117 1.161.106a2.626 2.626 0 002.19-.89 3.347 3.347 0 00.71-2.158 3.017 3.017 0 00-.677-1.996 2.447 2.447 0 00-1.978-.811 3.14 3.14 0 00-2.356 1.208v4.135z" fill="#316CB3"/></svg>