<svg width="1920" height="193" fill="none" xmlns="http://www.w3.org/2000/svg"><path d="M265 1H0l-1 136.766c22 11 59.431 62.494 218 38 246-38 515.567-36.34 719-20 249 20 541 36 705 36 111.76 0 237-6.5 279-51.5V1H265z" fill="#FFF6EE"/><path d="M265 1H0l-1 136.766c22 11 59.431 62.494 218 38 246-38 515.567-36.34 719-20 249 20 541 36 705 36 111.76 0 237-6.5 279-51.5V1H265z" fill="url(#paint0_linear_757_42)"/><path d="M265 1H0l-1 136.766c22 11 59.431 62.494 218 38 246-38 515.567-36.34 719-20 249 20 541 36 705 36 111.76 0 237-6.5 279-51.5V1H265z" stroke="#FFF6EE"/><defs><linearGradient id="paint0_linear_757_42" x1="919" y1="310.767" x2="919" y2="-793.233" gradientUnits="userSpaceOnUse"><stop stop-color="#fff"/><stop offset="1" stop-color="#fff" stop-opacity="0"/></linearGradient></defs></svg>