<svg width="1337" height="1083" fill="none" xmlns="http://www.w3.org/2000/svg"><g opacity=".3" clip-path="url(#clip0_603_539)"><path d="M54.47 1048.12l-.82-13.69-11.74-7.09a1.813 1.813 0 01-.688-.76 1.859 1.859 0 01.17-1.95c.206-.28.486-.5.808-.63l12.8-5 3.12-13.36c.082-.34.257-.65.505-.9.249-.25.561-.42.902-.5a1.902 1.902 0 011.883.63l8.71 10.6 13.66-1.17c.35-.03.703.04 1.017.19.315.16.578.41.76.71a1.884 1.884 0 01-.027 1.99l-7.43 11.53 5.34 12.63a1.883 1.883 0 01-.315 1.97c-.23.27-.532.46-.868.57-.337.1-.696.11-1.037.02L68 1040.46l-10.37 9c-.266.25-.597.41-.955.47-.357.07-.725.03-1.06-.12a1.856 1.856 0 01-1.145-1.69z" fill="#FF7556"/><path d="M148.41 946.86a13.804 13.804 0 01-.65-15.333 13.81 13.81 0 1119.94 18.333 13.81 13.81 0 01-19.29-3zM189 967.47c-2.82-3-5.52-6.32-8.73-8.87-2.76-2.19-6.61 1.42-4.49 4.3 2.59 3.53 6.09 6.56 9.14 9.7 1.23 1.27 3.6.74 4.6-.52 1.23-1.54.71-3.32-.52-4.61zm10.92-27.05c-5.31.14-10.46-.58-15.73-1-4.12-.36-4.86 5.16-1 6.24 5.56 1.53 11.66 1.63 17.39 1.48a3.36 3.36 0 10-.67-6.68l.01-.04zm-20.46-16.35a2.363 2.363 0 001.18 3c2.8 1.56 6.05-.64 8.37-2.2a29.843 29.843 0 006.4-5.94c2.71-3.34-2.51-7.52-5.23-4.17-5.32 6.57-9.46 5.67-10.72 9.31zm-17.98-20.41c-.28 7.11-2 10.54.14 13a2.78 2.78 0 004.33.09c1.57-1.56 1.35-4.12 1.59-6.17s.45-3.92.52-5.9a3.434 3.434 0 00-2.77-3.8c-1.62-.26-3.74 1-3.81 2.77v.01zm-13.81 7.44c-3-2.33-3.91-3.28-6.2-3.8-2-.45-4.09 1.95-3.14 3.85 1.11 2.22 2 2.73 5.17 5.18a3.344 3.344 0 104.17-5.23zm-9.75 16.29c-7.25-.66-8.9-1.08-10.7.33-1.06.83-1.65 2.71-.61 3.82 1.94 2.07 3.71 1.86 10.29 2.32a3.349 3.349 0 003.74-2.73 3.288 3.288 0 00-2.72-3.74zm-9.01 29.45c-1.29 2.24 1.58 5.09 3.85 4 2.27-1.09 2.74-1.8 11.37-9.68a3.44 3.44 0 00.74-4.67c-1-1.34-3.33-2-4.67-.74-8.98 8.25-10 8.84-11.29 11.09zm25.26 6.38c-2.11 8.51-3.46 8.09-3.59 12.57-.06 2 3 3.36 4.46 2 1.91-1.75 2.26-2.47 3.67-6.46a73.2 73.2 0 002.11-7.06 3.399 3.399 0 00-2.8-3.86 3.431 3.431 0 00-3.85 2.81z" fill="#FFCD7B"/><path d="M251.81 994.94c-6.92-9-21.51-7-28.39.81-7.61 8.67-7.87 22.24-1.09 31.45 7.34 10 19.46 11.71 28.16 4.32 8.47-7.2 6.54-19.18-2.75-24-6.65-3.44-13.15-.73-14.08 3-.73 2.89 2.11 5.52 4.78 3.82.499-.36.886-.85 1.114-1.42.229-.57.29-1.19.176-1.79 2.68-1.15 8 .53 10.5 5.54 3.22 6.4-2.61 12.74-8.63 14.26-7.67 1.93-14.56-3.48-17.68-10.15-3.28-7-2.26-16.11 2.87-22a16.291 16.291 0 0122.76-1.62 1.59 1.59 0 002.26-2.22z" fill="#70B2F5"/><path d="M100.68 881l-27.01.01 16.93 32.02L100.68 881z" fill="#6EDACA"/></g><g opacity=".3" clip-path="url(#clip1_603_539)"><path d="M1308.77 974.39l-1.36-11.34 9.91-6.11-2.43-12.62 12.57-3.25-2.12-14.38 11.21-4.42.22-14.17-5.36-.1-.17 10.59-11.83 4.67 2.04 13.82-12.78 3.31 2.68 13.92-9.68 5.96 1.27 10.52-7.18 2.59 1.83 5.04 11.18-4.03z" fill="#00C0A5"/><path d="M1080 1013.36l13.91.63 8.42-11.1c.22-.29.51-.51.84-.63.33-.13.7-.16 1.05-.1.35.07.67.24.94.48.26.24.45.55.54.9l3.7 13.46 13.16 4.57c.34.11.65.32.88.6.22.28.37.62.42.98.04.36-.01.72-.17 1.05-.15.32-.39.6-.69.8l-11.63 7.67-.29 13.93c-.02.35-.13.68-.33.97-.2.29-.47.52-.79.66-.31.15-.66.2-1.01.16-.35-.04-.67-.18-.95-.39l-10.88-8.69-13.33 4c-.34.11-.71.11-1.05.02-.35-.09-.66-.28-.9-.54a1.868 1.868 0 01-.4-1.98l4.91-13-8-11.44a1.883 1.883 0 01-.11-2.02 1.905 1.905 0 011.76-.99z" fill="#FFCD7B"/><path d="M1211.11 947.51a13.845 13.845 0 0111.72 1.9c1.2.79 2.23 1.814 3.02 3.01.8 1.196 1.35 2.539 1.61 3.951a10.57 10.57 0 01-.06 4.266c-.3 1.403-.89 2.731-1.72 3.903-3.81 5.69-13.3 9.08-30.17 6.26-9-14.52-9.51-24.59-5.7-30.28a10.764 10.764 0 012.96-3.076 10.775 10.775 0 013.92-1.68 10.751 10.751 0 018.21 1.626 13.814 13.814 0 014.24 4.361 13.777 13.777 0 011.97 5.759zm-45.39-27.15c3.97 3.729 8.14 7.231 12.5 10.49 1.32 1 3.31 3.07 5.07 2.62.43-.072.82-.306 1.09-.656.26-.349.39-.787.34-1.224-.15-1.82-2.46-2.87-3.78-3.86-4-3-8.48-6.63-12.75-10.53a2.008 2.008 0 00-2.82.345 2.06 2.06 0 00-.41 1.479c.07.528.34 1.008.76 1.336zm59.74 60.8c1.91 1.48 3.85 2.92 5.78 4.37 1.93 1.45 3.8 3.34 6 4a1.733 1.733 0 002-.551c.24-.296.36-.658.37-1.032.01-.375-.1-.742-.32-1.047-1.29-2-3.68-3.24-5.54-4.62-1.86-1.38-3.87-2.89-5.83-4.3-1.96-1.41-4.53 1.58-2.48 3.16l.02.02zM1164.58 959c5.48-2.25 9.37-1.29 12.79-1.16.39.047.78-.046 1.1-.263.32-.216.55-.541.66-.915a1.62 1.62 0 00-.91-1.912c-4.52-2.4-10.68-1.35-15.18.55-2.37 1-.85 4.68 1.54 3.7zm14.6 26.92a17.755 17.755 0 015.32-5.08c1.31-.8 6-2.24 4.17-4.54s-5.5.48-7.12 1.58a20.996 20.996 0 00-5.55 5.56c-1.45 2.14 1.7 4.62 3.18 2.48zm25.5.16c.49 1.58 1 3.17 1.46 4.76.46 1.59.66 3.48 2.29 4.25.42.173.9.174 1.32.005.43-.17.77-.498.96-.915.81-1.43-.32-3.48-.77-4.93-.45-1.45-1-3.16-1.49-4.74a2.06 2.06 0 00-2.67-1.1c-.49.218-.88.617-1.09 1.114-.2.498-.21 1.055-.01 1.556zm2.06-60.38c3.32-12.94 3.43-12.93 3.26-14.36a1.807 1.807 0 00-.43-.907 1.796 1.796 0 00-1.87-.506c-.32.104-.61.299-.83.563-.92 1.21-.75 1-4.19 14.66-.07.541.08 1.087.41 1.52.33.434.82.721 1.36.8.54.063 1.09-.085 1.52-.415.44-.33.73-.816.81-1.355h-.04zm17.68 13.13a30.38 30.38 0 005.19-4c1.47-1.42 3.92-3.39 3.27-5.65-.1-.256-.27-.479-.49-.647a1.533 1.533 0 00-.75-.303c-2.07-.1-3.44 2.31-4.81 3.61a35.571 35.571 0 01-4.83 3.81c-.22.154-.41.351-.55.58a2.04 2.04 0 00-.29.751c-.04.267-.03.539.04.801s.18.508.35.723a1.992 1.992 0 002.87.325zm23.63 20.31c.36-.286.59-.699.65-1.154.07-.454-.05-.915-.32-1.286-.94-1.53-3.65-1.55-5.26-1.73a35.558 35.558 0 00-5.65-.14 1.99 1.99 0 00-1.34.772c-.16.211-.28.453-.35.71a2.09 2.09 0 00-.04.788c.09.522.37.991.79 1.312.42.321.94.471 1.47.418 7.15-.1 7.94 1.63 10.05.31z" fill="#FF8D7F"/><path d="M1244.08 1044.36c-10.32 5.09-11.32 20-4.89 28.44 7.11 9.31 20.58 12.29 31.1 7.38 11.4-5.31 15.57-17 10-27.18-5.46-9.87-17.79-10.35-24.43-2.07-4.76 5.95-3.36 12.95.15 14.63 2.73 1.31 5.92-1 4.76-4-.25-.57-.66-1.05-1.19-1.39a3.13 3.13 0 00-1.75-.53c-.61-2.9 2.13-7.85 7.62-9.35 7-1.92 12.17 5.15 12.47 11.45.39 8-6.38 13.8-13.65 15.58-7.63 1.86-16.49-1-21.32-7.27a16.566 16.566 0 012.95-23c.36-.24.6-.61.68-1.04.09-.42 0-.86-.24-1.22-.25-.35-.62-.6-1.04-.68-.43-.08-.86.01-1.22.25z" fill="#70B2F5"/></g><g opacity=".3" clip-path="url(#clip2_603_539)"><path d="M239.829 153.882l-4.963-10.287 7.394-8.993-6.39-11.15 10.837-7.15-6.668-12.916 9.172-7.815-4.386-13.476-5.103 1.643 3.272 10.073-9.676 8.253 6.41 12.412-11.017 7.275 7.049 12.299-7.225 8.777 4.612 9.54-5.952 4.777 3.365 4.175 9.269-7.437z" fill="#00C0A5"/><path d="M36.051 264.917l13.363-3.914 4.366-13.23a1.91 1.91 0 013.4-.478l7.863 11.534 13.93.056a1.915 1.915 0 011.739 1.072 1.917 1.917 0 01-.21 2.03l-8.515 11.027 4.242 13.271a1.91 1.91 0 01-2.46 2.323l-13.11-4.693-11.313 8.106a1.917 1.917 0 01-2.016.144 1.909 1.909 0 01-1.017-1.747l.43-13.89-11.277-8.229a1.907 1.907 0 01-.306-2.821c.239-.267.548-.461.891-.561z" fill="#FFCD7B"/><path d="M138.73 160.117a13.837 13.837 0 015.626-2.319 13.836 13.836 0 016.077.316 10.73 10.73 0 013.836 1.867 10.723 10.723 0 013.765 11.522c-1.76 6.618-9.638 12.901-26.511 15.703-13.221-10.818-16.969-20.178-15.209-26.796a10.752 10.752 0 014.969-6.731 10.738 10.738 0 018.291-1.122 13.856 13.856 0 019.156 7.56zm-51.741-10.968a144.661 144.661 0 0015.226 5.871c1.573.518 4.126 1.831 5.645.834a1.718 1.718 0 00.744-2.242c-.732-1.673-3.258-1.917-4.828-2.426-4.756-1.541-10.171-3.522-15.475-5.827a2.007 2.007 0 00-2.551 1.239 2.005 2.005 0 001.239 2.551zm76.225 38.147c2.287.781 4.589 1.514 6.885 2.26 2.296.746 4.677 1.928 6.973 1.839a1.74 1.74 0 001.086-3.153c-1.869-1.473-4.531-1.871-6.738-2.574-2.207-.702-4.598-1.479-6.91-2.177-2.311-.699-3.773 2.963-1.321 3.793l.025.012zm-64.776-1.225c4.455-3.905 8.446-4.258 11.723-5.244a1.616 1.616 0 001.28-1.684 1.616 1.616 0 00-1.478-1.514c-5.053-.805-10.54 2.185-14.181 5.442-1.918 1.714.713 4.702 2.656 3zm22.539 20.733a17.79 17.79 0 013.386-6.531c.98-1.181 4.95-4.064 2.473-5.646-2.477-1.583-5.047 2.237-6.223 3.803a21 21 0 00-3.448 7.059c-.678 2.494 3.106 3.819 3.812 1.315zm24.175-8.116c.976 1.336 1.974 2.674 2.924 4.029.951 1.355 1.753 3.078 3.544 3.278a1.771 1.771 0 001.862-1.6c.303-1.615-1.431-3.188-2.327-4.414-.895-1.226-1.97-2.665-2.946-4.001a2.06 2.06 0 00-2.882-.175 2.093 2.093 0 00-.175 2.883zm-17.627-57.787c-1.055-13.317-.948-13.343-1.572-14.641a1.785 1.785 0 00-1.686-.939 1.786 1.786 0 00-1.551 1.15c-.478 1.443-.385 1.189.79 15.226a2.086 2.086 0 002.426 1.621 2.112 2.112 0 001.63-2.43l-.037.013zm20.981 6.689a30.465 30.465 0 003.613-5.467c.93-1.819 2.609-4.477 1.262-6.405a1.525 1.525 0 00-1.481-.496c-1.991.576-2.505 3.3-3.38 4.974a35.597 35.597 0 01-3.334 5.17 2.012 2.012 0 00-.359 1.53 1.998 1.998 0 003.134 1.282c.22-.157.405-.357.545-.588zm28.939 11.552c.247-.387.335-.854.245-1.304a1.775 1.775 0 00-.724-1.111c-1.385-1.143-3.955-.283-5.537.068a35.568 35.568 0 00-5.39 1.7 2.003 2.003 0 00-1.115 1.948c.02.265.093.524.214.76a2.082 2.082 0 002.699.904c6.732-2.413 8.04-1.032 9.608-2.965z" fill="#FF8D7F"/><path d="M201.319 241.046c-8.113 8.161-4.225 22.59 4.594 28.489 9.745 6.502 23.453 4.954 31.813-3.102 9.063-8.719 9.218-21.129.648-28.954-8.365-7.566-20.185-4.023-23.782 5.963-2.573 7.172 1.021 13.34 4.886 13.791 3.007.354 5.276-2.866 3.206-5.327a3.232 3.232 0 00-3.404-.864c-1.517-2.545-.53-8.116 4.177-11.315 5.999-4.086 13.182.926 15.509 6.789 2.962 7.441-1.562 15.123-7.862 19.164-6.615 4.233-15.923 4.4-22.525.034A16.556 16.556 0 01203.913 243a1.623 1.623 0 10-2.594-1.954z" fill="#70B2F5"/></g><g opacity=".3" clip-path="url(#clip3_603_539)"><path d="M1233.67 193.768l2.74-13.439 12.62-5.37c.31-.14.59-.365.78-.651.2-.285.32-.62.34-.967.01-.346-.06-.692-.23-.997a1.847 1.847 0 00-.71-.733l-11.97-6.749-1.21-13.666a1.88 1.88 0 00-.38-.961c-.21-.28-.49-.496-.82-.623a1.894 1.894 0 00-1.03-.097 1.89 1.89 0 00-.92.457l-10.11 9.27-13.36-3.078a1.882 1.882 0 00-2.3 1.592c-.05.349.01.704.16 1.024l5.73 12.459-7.06 11.755c-.18.302-.27.649-.27 1.002.01.352.11.696.31.992.19.296.46.533.78.683.31.151.67.209 1.02.169l13.57-1.558 9 10.368c.23.282.54.492.88.605.35.112.72.122 1.07.029.35-.093.67-.286.91-.555.24-.269.4-.603.46-.961z" fill="#FF7556"/><path d="M1154.89 80.31a13.8 13.8 0 002.8-15.089 13.769 13.769 0 00-5.17-6.132 13.799 13.799 0 00-20.34 6.471 13.733 13.733 0 00-.68 7.99 13.863 13.863 0 003.87 7.02 13.836 13.836 0 009.82 3.91 13.787 13.787 0 009.7-4.17zm-43.08 14.702c3.21-2.574 6.35-5.481 9.89-7.555 3.04-1.78 6.35 2.335 3.84 4.889-3.06 3.13-6.95 5.638-10.41 8.319-1.4 1.084-3.67.226-4.48-1.162-1-1.697-.24-3.386 1.16-4.49zm-7.01-28.316c5.24.885 10.44.896 15.71 1.22 4.13.223 4.09 5.792.12 6.32-5.72.733-11.78-.026-17.43-.98a3.429 3.429 0 01-1.24-.523 3.52 3.52 0 01-.94-.969c-.24-.382-.4-.81-.48-1.258-.07-.448-.05-.906.06-1.346.11-.44.3-.855.57-1.218.28-.362.62-.666 1.01-.892.4-.227.83-.371 1.28-.425a3.34 3.34 0 011.34.112v-.041zm22.55-13.312c.14.581.06 1.195-.24 1.716-.29.52-.77.91-1.34 1.088-3 1.151-5.9-1.484-7.98-3.354a29.699 29.699 0 01-5.5-6.78c-2.22-3.689 3.54-7.093 5.76-3.395 4.34 7.253 8.57 6.944 9.3 10.725zm20.67-17.681c-.72 7.079.5 10.716-1.96 12.851a2.773 2.773 0 01-2.27.77 2.8 2.8 0 01-2.03-1.289c-1.34-1.765-.76-4.269-.71-6.332.05-2.064.11-3.945.32-5.915.01-.874.36-1.71.97-2.336a3.4 3.4 0 012.3-1.037c1.64-.03 3.57 1.516 3.39 3.278l-.01.01zm12.63 9.307c3.3-1.885 4.33-2.698 6.67-2.891 2.05-.165 3.78 2.505 2.57 4.253-1.41 2.042-2.36 2.422-5.84 4.402a3.36 3.36 0 01-2.54.356c-.42-.11-.82-.303-1.17-.568a3.184 3.184 0 01-.87-.973 3.203 3.203 0 01-.43-1.232c-.06-.435-.04-.878.07-1.303.11-.425.3-.825.57-1.175.26-.351.59-.646.97-.87zm7.37 17.498c7.27.366 8.96.182 10.54 1.83.94.972 1.26 2.916.07 3.869-2.21 1.777-3.93 1.32-10.51.85a3.346 3.346 0 01-3.32-3.228c-.01-.866.32-1.7.92-2.321a3.32 3.32 0 012.3-1zm4.78 30.424c.96 2.4-2.28 4.818-4.38 3.42-2.09-1.398-2.46-2.168-9.89-11.182a3.398 3.398 0 01-.98-2.349 3.43 3.43 0 01.9-2.379c1.18-1.186 3.58-1.512 4.73-.076 7.73 9.43 8.66 10.157 9.62 12.566zm-25.91 2.768c.9 8.721 2.29 8.495 1.79 12.949-.22 1.988-3.44 2.905-4.7 1.353-1.64-2.001-1.89-2.763-2.72-6.911a71.694 71.694 0 01-1.1-7.287c-.01-.892.34-1.751.96-2.392a3.386 3.386 0 012.36-1.036 3.45 3.45 0 012.38.971c.63.62 1 1.463 1.03 2.352z" fill="#FFCD7B"/><path d="M1045.76 113.383c8.12-7.939 22.28-3.908 28 4.791 6.31 9.654 4.66 23.126-3.34 31.291-8.68 8.87-20.92 8.859-28.49.32-7.37-8.319-3.78-19.909 6.09-23.375 7.07-2.472 13.13 1.125 13.52 4.949.32 2.964-2.86 5.168-5.27 3.11a3.267 3.267 0 01-.9-1.559c-.15-.595-.12-1.22.08-1.8-2.49-1.516-8-.6-11.18 4.009-4.08 5.884.8 12.98 6.54 15.331 7.33 2.989 14.91-1.399 18.94-7.564 4.23-6.47 4.5-15.633.25-22.185a16.311 16.311 0 00-10.18-6.959 16.284 16.284 0 00-12.13 2.156 1.593 1.593 0 01-2.12-.375 1.625 1.625 0 01-.32-1.107c.04-.396.22-.765.51-1.033z" fill="#70B2F5"/><path d="M1211.41 21.812l26.74 3.806-21.27 29.323-5.47-33.129z" fill="#6EDACA"/></g><defs><clipPath id="clip0_603_539"><path fill="#fff" transform="translate(41 881)" d="M0 0h214.89v168.9H0z"/></clipPath><clipPath id="clip1_603_539"><path fill="#fff" transform="translate(1078 908)" d="M0 0h258.77v174.52H0z"/></clipPath><clipPath id="clip2_603_539"><path fill="#fff" transform="rotate(-18.918 497.872 82.949)" d="M0 0h258.77v174.52H0z"/></clipPath><clipPath id="clip3_603_539"><path fill="#fff" transform="scale(-1 1) rotate(-8.079 -421.42 9010.75)" d="M0 0h214.89v168.9H0z"/></clipPath></defs></svg>