<svg width="1171" height="801" fill="none" xmlns="http://www.w3.org/2000/svg"><g filter="url(#filter0_f_9502_51)"><path d="M272.201 679.865c-75.771 2.045-115.828 14.066-115.828 26.949 0 15.688 5.518 27.753 55.742 32.763 38.831 3.856 297.617-1.972 418.606-1.811 162.884.219 272.581 2.6 305.741 3.125 94.778 1.534 115.678-55.344-6.642-59.697-112.354-4.016-545.777-4.323-657.619-1.329z" fill="#CF9898" fill-opacity=".39"/></g><g filter="url(#filter1_f_9502_51)"><path d="M216.128 693.05c-89.332.415-136.558 2.857-136.558 5.474 0 3.186 6.506 5.637 65.719 6.655 45.78.783 350.882-.401 493.524-.368 192.036.044 321.366.528 360.46.635 111.737.311 136.377-11.242-7.831-12.126-132.462-.816-643.455-.878-775.314-.27z" fill="#CF9898" fill-opacity=".53"/></g><path d="M1000.12 709.107c-104.342-2.257-282.834-7.883-412.682-9.853-330.144-4.927-374.491 14.779-485.737 3.202-77.502-8.069-85.265-75.452-93.079-155.544-8.788-89.522-12.08-278.408 0-386.817C18.928 67.046 38.022-5.795 285.63.364 482.704 5.26 964.392 1.97 964.392 1.97c169.998 0 188.468 43.164 197.058 122.774 12.74 117.473 12.74 324.439-.06 450.09-10.74 104.567-46.31 136.755-161.27 134.273z" fill="#fff"/><mask id="a" style="mask-type:alpha" maskUnits="userSpaceOnUse" x="0" y="0" width="1172" height="710"><path d="M1000.12 709.107c-104.342-2.257-282.834-7.883-412.682-9.853-330.144-4.927-374.491 14.779-485.737 3.202-77.502-8.069-85.265-75.452-93.079-155.544-8.788-89.522-12.08-278.408 0-386.817C18.928 67.046 38.022-5.795 285.63.364 482.704 5.26 964.392 1.97 964.392 1.97c169.998 0 188.468 43.164 197.058 122.774 12.74 117.473 12.74 324.439-.06 450.09-10.74 104.567-46.31 136.755-161.27 134.273z" fill="#fff"/></mask><g mask="url(#a)"><path fill="#44D6FF" d="M-6.148 0h535.986v717.275H-6.148z"/><path fill="url(#paint0_linear_9502_51)" fill-opacity=".8" d="M-6.148 0h535.986v717.275H-6.148z"/></g><defs><filter id="filter0_f_9502_51" x="96.373" y="617.865" width="978.266" height="183.057" filterUnits="userSpaceOnUse" color-interpolation-filters="sRGB"><feFlood flood-opacity="0" result="BackgroundImageFix"/><feBlend in="SourceGraphic" in2="BackgroundImageFix" result="shape"/><feGaussianBlur stdDeviation="30" result="effect1_foregroundBlur_9502_51"/></filter><filter id="filter1_f_9502_51" x="59.57" y="672.644" width="1051.87" height="52.809" filterUnits="userSpaceOnUse" color-interpolation-filters="sRGB"><feFlood flood-opacity="0" result="BackgroundImageFix"/><feBlend in="SourceGraphic" in2="BackgroundImageFix" result="shape"/><feGaussianBlur stdDeviation="10" result="effect1_foregroundBlur_9502_51"/></filter><linearGradient id="paint0_linear_9502_51" x1="261.845" y1="664.144" x2="261.845" y2="265.658" gradientUnits="userSpaceOnUse"><stop offset=".006" stop-color="#fff"/><stop offset="1" stop-color="#fff" stop-opacity="0"/></linearGradient></defs></svg>