<svg width="338" height="355" fill="none" xmlns="http://www.w3.org/2000/svg"><path d="M263.076 142.225s-1.565-5.612-8.256-3.507c-6.692 2.104-4.358 7.878-4.358 7.878-5.059-1.119-8.445 1.822-7.177 4.574-4.398-4.263-23.515-3.332-19.778 18.456-1.525-.756-2.523 1.538-2.523 1.538-4.884-4.236-18.726 0-12.398 8.755 0 0-11.778 2.995-5.154 9.741 0 0-5.653 4.87-2.091 10.793a6.906 6.906 0 009.188 2.981s-6.125 14.652 10.496 13.262c.283 5.059 9.173 5.194 9.173 5.194s-.256 11.724 8.217 12.331c2.226 7.326 17.983 11.737 22.799 3.602 1.97 2.698 5.815-.931 5.815-.931.135 3.764 6.988 5.612 13.113.675 4.479 9.781 32.312 11.643 26.106-9.93 5.801 1.349 8.62-2.266 7.123-4.803 4.047 3.211 9.686-1.686 3.683-7.339 13.491 4.574 22.935-9.443 20.587-15.447-2.347-6.003-13.099-7.514-13.099-7.514s12.344-9.215-1.498-16.433c5.019-6.394 2.604-22.327-19.98-16.877a4.957 4.957 0 00-2.698-2.698c5.625-2.698-2.564-15.029-15.502-6.881-2.266-13.706-16.823-16-21.788-7.42z" fill="#539832"/><path d="M337.601 200.008c-2.375-5.99-13.1-7.515-13.1-7.515s12.344-9.214-1.497-16.432c5.018-6.395 2.603-22.328-19.981-16.877a4.95 4.95 0 00-2.698-2.699c5.626-2.698-2.563-15.029-15.501-6.88-2.172-13.734-16.729-16.027-21.734-7.447 0 0-1.565-5.612-8.257-3.508-6.691 2.105-4.357 7.879-4.357 7.879-5.06-1.12-8.446 1.821-7.178 4.573-4.398-4.263-23.515-3.332-19.778 18.456-1.524-.755-2.522 1.538-2.522 1.538-4.884-4.236-18.726 0-12.399 8.756 0 0-11.777 2.995-5.153 9.74 0 0-5.653 4.871-2.091 10.793a6.905 6.905 0 009.187 2.982s-6.125 14.651 10.496 13.262c.283 5.059 9.174 5.194 9.174 5.194s-.256 11.723 8.216 12.33c2.226 7.326 17.984 11.738 22.8 3.603 1.97 2.698 5.815-.931 5.815-.931.134 3.764 6.988 5.612 13.113.674 4.479 9.781 32.311 11.643 26.105-9.929 5.801 1.349 8.621-2.267 7.123-4.803 4.048 3.211 9.687-1.686 3.683-7.339 13.465 4.6 22.908-9.43 20.534-15.42zm-30.571 4.317c1.821 1.619 1.025 4.654-1.201 6.745-3.845 3.548-8.553 3.319-11.359-.647a2.564 2.564 0 01-1.187-.284c.175 2.523-.23 5.694-2.564 6.948a3.91 3.91 0 01-4.222 0c-.904 5.073-6.962 9.673-12.614 6.746-3.724-1.916-5.289-7.204-2.402-9.606-3.089-.728-3.615-3.629-2.631-6.529-2.482-.931-2.698-4.142-1.173-6.746-6.746 2.442-18.065 1.605-16.986-4.965-2.63 1.916-6.745 3.656-8.715 2.253-.769 2.82-2.698 5.761-5.599 6.422-3.21.729-4.829-.958-4.829-2.995-3.603 3.251-9.674 6.584-13.276 3.953-5.504-4.047-.377-9.363 5.033-10.618-5.221-4.047 13.936-14.772 13.491-6.003 2.698-2.334 7.42-2.698 7.905.378 2.537-2.091 5.842-2.523 8.27-.068a11.926 11.926 0 019.026-5.99 4.94 4.94 0 011.74.176 6.74 6.74 0 011.741-3.022 6.58 6.58 0 019.106-.284c-.094-2.698.864-5.194 3.886-5.693a8.849 8.849 0 01.715-9.349c2.131-2.779 7.204-3.441 10.374-1.808 6.206 3.251 3.953 10.968 1.43 16.324 1.808-1.349 4.048-2.374 6.206-1.727a4.814 4.814 0 012.779 2.091 12.403 12.403 0 017.056-.985c6.813 1.35 5.302 7.002 2.064 10.915 4.614-1.741 10.955-2.564 11.265 2.698.459 6.179-6.664 10.671-13.329 11.67z" fill="#569132" opacity=".4"/><path d="M337.601 200.008c-2.064-5.235-10.496-7.056-12.641-7.448-.102.07-.211.128-.324.176 2.212 1.093 4.438 2.442 4.897 4.681a9.646 9.646 0 01-1.551 7.96c-3.535 4.533-10.159 7.528-16.014 4.681a6.755 6.755 0 01.607 5.667 3.12 3.12 0 01-3.454 2.212 4.68 4.68 0 01-2.536 5.275 5.144 5.144 0 01-4.209.553c.229 3.346-.742 6.746-3.683 8.459-2.699 1.66-6.53.634-8.54-1.349a5.86 5.86 0 01-1.093-1.592 10.198 10.198 0 01-2.874 1.349c-3.062.931-6.853-.539-7.015-2.698-4.371 2.887-11.184 4.884-14.206-.202a8.52 8.52 0 01-.715-7.11 6.006 6.006 0 01-3.521-1.241c-2.523 3.831-7.272 7.298-11.791 5.841a6.38 6.38 0 01-4.695-4.843 6.027 6.027 0 01-6.193-3.4 4.682 4.682 0 010-3.318c-3.103 2.401-7.231 3.426-11.008.715a8.12 8.12 0 01-2.146-2.226 10.336 10.336 0 01-4.047 1.457c-4.128.566-4.546-2.699-3.076-5.033-4.641-.337-6.975-2.914-6.017-6.556a19.413 19.413 0 01-4.546 2.145 7.777 7.777 0 003.278-.715s-6.125 14.651 10.496 13.262c.283 5.059 9.174 5.194 9.174 5.194s-.256 11.723 8.216 12.33c2.226 7.326 17.984 11.738 22.8 3.603 1.97 2.698 5.815-.931 5.815-.931.135 3.764 6.988 5.612 13.113.674 4.479 9.781 32.311 11.643 26.105-9.929 5.801 1.349 8.621-2.267 7.123-4.803 4.048 3.211 9.687-1.686 3.683-7.339 13.519 4.519 22.962-9.511 20.588-15.501zm-133.885-3.157c1.079-1.012 4.047-1.903 5.328-1.08a7.861 7.861 0 017.137-2.468c-3.157-7.906 16.797-16.864 23.205-7.947a8.848 8.848 0 011.066-.27 8.354 8.354 0 017.029 1.498c2.495-2.01 6.947-2.955 10.792-2.874a15.808 15.808 0 014.695-6.853 10.102 10.102 0 018.985-2.442c-2.293-4.546-.688-10.064 3.778-13.815a12.384 12.384 0 015.801-2.698c2.482-3.953 8.324-6.813 12.587-4.047 3.575 2.347 3.359 6.583 1.579 10.334a12.666 12.666 0 015.113-.54c4.303.567 5.639 3.157 5.396 6.274 3.171-3.737 7.623-6.746 13.181-6.49 1.62.057 3.21.452 4.668 1.161-2.321-4.857-8.594-8.378-21.127-5.397a4.957 4.957 0 00-2.698-2.698c5.625-2.698-2.564-15.029-15.502-6.881-2.172-13.733-16.729-16.027-21.734-7.447 0 0-1.565-5.612-8.256-3.507-6.692 2.104-4.358 7.879-4.358 7.879-5.059-1.12-8.445 1.821-7.177 4.573-4.398-4.263-23.515-3.332-19.778 18.456-1.525-.756-2.523 1.538-2.523 1.538-4.884-4.236-18.725 0-12.398 8.755 0 0-11.778 2.995-5.154 9.741 0 0-5.652 4.87-2.091 10.793.243.364.459.715.702 1.025a5.227 5.227 0 011.754-4.573z" fill="#457728" opacity=".4"/><path d="M134.911 203.677s23.326-5.882 8.661-21.154c2.065-5.167-7.582-10.334-12.479-8.162 8.608-6.111 7.043-22.382-8.675-22.112 0 0 7.987-22.935-23.258-20.061 4.438-12.142-14.84-17.538-23.056-7.353-5.397-9.16-19.657-3.521-20.44 4.291-5.733-12.331-34.752-7.394-29.68 13.653-9.443-3.4-11.858 3.629-10.981 7.662-9.12-4.775-22.476 9.957-8.756 20.723-10.28 3.98-6.435 17.808 1.214 18.132-7.852 8.351 1.35 8.998 3.966 9.727-5.666 9.997.149 17.741 8.392 13.491-2.577 10.186 12.587 4.047 12.587 4.047-2.334 12.938 19.44 22.665 25.997 11.697 1.997 10.307 12.142 4.533 12.142 4.533.742 7.676 21.964 6.516 22.045-3.521 8.013 9.443 25.147-2.833 22.516-8.985 9.431 2.9 21.397-4.83 19.805-16.608z" fill="#509D32"/><path d="M143.559 182.55c2.064-5.167-7.582-10.334-12.479-8.162 8.607-6.111 7.042-22.382-8.675-22.112 0 0 7.987-22.935-23.259-20.061 4.439-12.142-14.84-17.538-23.056-7.353-5.396-9.16-19.656-3.521-20.439 4.291-5.734-12.331-34.753-7.394-29.68 13.652-9.444-3.399-11.859 3.63-10.982 7.663-9.106-4.802-22.462 9.93-8.742 20.696-10.28 3.98-6.435 17.808 1.214 18.132-7.852 8.351 1.35 8.998 3.966 9.727-5.666 9.997.149 17.741 8.392 13.491-2.577 10.186 12.587 4.047 12.587 4.047-2.334 12.938 19.44 22.665 25.997 11.697 1.997 10.307 12.142 4.533 12.142 4.533.742 7.676 21.964 6.516 22.045-3.521 8.013 9.443 25.147-2.833 22.516-8.985 9.444 2.927 21.411-4.803 19.805-16.554 0-.054 23.313-5.909 8.648-21.181zm-138.58.891a3.576 3.576 0 011.052-2.132.809.809 0 01.216-.31 4.219 4.219 0 013.804-1.107 3.602 3.602 0 012.51 2.199c.836 2.415-1.957 4.83-4.587 4.83a3.003 3.003 0 01-2.995-3.48zm17.956 21.302a7.76 7.76 0 01-5.396 4.762c-2.806.634-6.166-1.497-5.06-4.303a6.738 6.738 0 015.29-3.845.797.797 0 01.552-.23c2.658-.148 5.586.81 4.614 3.616zm8.743 1.16c-.837.715-2.038.985-2.874 1.673-.62.499-1.174-.135-.904-.647v-.243a1.91 1.91 0 00-.175-.432 2.308 2.308 0 01-.257-1.147c.243-1.349 1.781-1.74 3.13-1.848.661 0 .729.499.473.89.317.048.612.189.85.405a.946.946 0 01-.216 1.349h-.027zm5.126-26.645a5.704 5.704 0 01-2.833 4.736c-2.01 1.173-4.64 1.592-6.381.324-1.026 5.126-7.083 11.049-13.1 9.443-6.678-1.848-2.617-7.649 2.496-8.094a2.984 2.984 0 01.485-1.93 3.17 3.17 0 01-2.266-4.047c-2.388.189-4.924-.486-5.396-2.698-.608-2.82 2.199-4.236 4.978-4.749-1.35-1.147-1.35-2.941-1.08-4.87-4.654-.634-7.757-5.14-5.207-9.444 2.132-3.589 6.165-2.86 9.525-1.241a6.406 6.406 0 012.617-5.896 4.962 4.962 0 011.821-4.398 8.375 8.375 0 016.112-1.848 6.343 6.343 0 01-.108-2.388c.418-2.698 1.524-4.924 4.209-4.992a4.222 4.222 0 012.226-5.086c-1.35-4.965 9.74-8.864 10.55-2.9a6.247 6.247 0 015.531-.162c3.953 1.956 3.832 6.948 2.172 10.604a5.5 5.5 0 015.262.108c-.405-2.888-.405-5.964 2.064-7.555 2.469-1.592 5.923-1.619 7.609.863a8.188 8.188 0 01.782 6.003 9.672 9.672 0 018.621 1.646c2.05 1.714 1.35 4.372-.337 6.179 3.683.526 6.327 3.468 2.523 6.813a18.712 18.712 0 01-11.009 3.872c.09.395.09.806 0 1.201a9.293 9.293 0 01-6.61 5.882l-.54.162a7.019 7.019 0 01-1.2 4.412c-1.35 2.253-4.75 4.452-7.313 3.764.256 2.9-1.498 6.313-4.978 6.246a12.156 12.156 0 01-5.289-1.511 4.428 4.428 0 01-4.668 2.01 5.142 5.142 0 01-1.24-.459h-.028zm56.46 29.681a19.556 19.556 0 01-8.27 2.833 13.889 13.889 0 01-3.359 5.086c-3.683 3.67-11.036 6.26-13.019 1.349-1.51 3.117-4.52 5.68-8.62 3.602a9.12 9.12 0 01-4.17-4.047c-3.089 3.035-7.136 5.059-11.386 4.384-8.688-1.349-6.556-11.332 0-12.857-2.698-3.049.77-10.118 6.638-10.887 2.415-4.276 9.444-8.202 11.845-2.28 1.349-4.317 3.804-8.094 9.444-9.079 4.87-.85 8.715.944 9.74 4.937 2.806-3.21 7.582-3.156 10.968.122 3.387 3.278 1.984 6.894-1.038 9.336a2.91 2.91 0 013.25 2.104 4.736 4.736 0 01-1.996 5.383l-.027.014z" fill="#569132" opacity=".4"/><path d="M65.567 123.702a7.608 7.608 0 009.89 3.467c.97-.391.93.796.269 1.161-4.79 2.468 2.698 5.733 5.073 6.421 3.386.958 7.352 1.552 10.59-.108.985-.391.971.81.283 1.161-8.094 3.17-5.814 11.845.378 15.609.594.351-.162 1.052-.553 1.174-3.21.876-7.46 2.482-8.095 5.814a5.813 5.813 0 002.2 5.693c5.68 4.412 9.942-1.47 11.305-6.138.175-.634 1.349-.904 1.349-.094.418 6.017 8.918 3.764 12.722 2.037 6.165-2.793 9.902-7.893 12.344-13.491a13.011 13.011 0 00-3.251-3.184c-.621-.432.391-1.484 1.079-1.066a11.656 11.656 0 011.957 1.673c-.877-6.193-5.734-13.289-23.96-11.656 4.438-12.142-14.84-17.539-23.057-7.353-2.698-4.52-7.487-5.397-11.764-4.263a11.629 11.629 0 001.241 3.143z" fill="#569132" opacity=".4"/><path d="M143.559 182.55c2.064-5.167-7.582-10.334-12.479-8.162 7.42-5.275 7.271-18.064-2.982-21.343 1.889 6.827.567 13.91-7.825 13.235 1.35 3.71.486 9.673-4.694 10.105-5.586.472-8.014-4.533-9.039-8.985a7.809 7.809 0 01-6.013 4.067 7.82 7.82 0 01-6.764-2.637c-1.349 3.534-4.95 5.396-9.173 5.72a10.173 10.173 0 01.337 7.218c4.357-.648 10.064-.472 13.855 1.349 3.791 1.821 2.698 4.6.378 6.867 3.4 0 7.73.904 8.985 3.885 1.052 2.483 0 4.452-1.929 6.044 3.426.095 6.448 1.808 5.814 5.397-.445 2.522-2.698 3.521-5.032 3.291 3.656 6.368-4.047 14.274-10.28 8.77a13.943 13.943 0 01-7.852 9.039c-4.047 1.673-6.826.323-7.96-2.847a10.643 10.643 0 01-9.025 5.558c-3.535 0-4.493-2.05-3.683-4.398-3.454 1.525-6.53 1.16-10.226-.418-1.457 3.602-6.61 7.218-8.608 2.928a14.835 14.835 0 01-6.853 4.195c5.882 2.469 12.695 2.051 15.892-3.291 1.997 10.307 12.142 4.533 12.142 4.533.742 7.676 21.964 6.516 22.045-3.522 8.013 9.444 25.147-2.833 22.516-8.985 9.444 2.928 21.411-4.803 19.805-16.553 0 .067 23.313-5.788 8.648-21.06z" fill="#178137" opacity=".3"/><path d="M143.559 182.55c2.064-5.167-7.582-10.334-12.479-8.162 7.42-5.275 7.272-18.064-2.982-21.343 1.889 6.827.567 13.91-7.824 13.235 1.349 3.71.485 9.673-4.695 10.105-5.586.472-8.014-4.533-9.039-8.985a7.372 7.372 0 01-2.253 2.55 12.208 12.208 0 011.079 14.071c5.747-2.523 17.053-4.048 14.84 2.172 5.72-2.995 13.491-.675 12.817 6.341-.446 4.762-6.031 5.787-10.874 5.167 3.44 3.062 4.951 7.555 2.698 11.926-2.253 4.371-6.287 4.964-9.444 2.334a9.885 9.885 0 01-4.587 8.486c-1.848 1.079-3.157.89-3.885-.108-1.686 5.396-5.815 10.509-12.142 10.644 8.513 5.788 22.935-5.073 20.52-10.793 9.444 2.928 21.41-4.803 19.805-16.553-.203.04 23.11-5.815 8.445-21.087z" fill="#178137" opacity=".3"/><path d="M242.907 200.143s-2.698 11.669-15.987 20.843-22.57 17.984-23.919 15.947c-1.35-2.038-.635-13.235-1.606-22.935-1.349-13.221 1.201-24.5 7.393-38.355 6.193-13.856 7.312-21.087 17.539-32.244-2.847-3.508-2.132-5.396-2.132-5.396s-7.649 10.873-9.727 10.793c-2.078-.081 2.078-12.588 2.078-12.588l-6.085-2.684s-1.349 18.806-4.789 30.678c-3.44 11.872-16.716 40.177-20.237 40.474-3.521.296-.688-25.161 0-35.63.688-10.469 3.117-16.959 5.181-20.048 2.064-3.09 6.219-11.4 6.219-11.4s-5.073 1.039-8.364-.796c-7.245 13.491-9.444 30.935-9.889 41.971-.688 18.037-1.538 22.422-4.169 21.734-2.631-.688-5.167-8.54-6.368-12.857-1.201-4.317-6.03-12.493-7.352-17.377-1.323-4.883-.729-7.932 5.49-18.388 6.22-10.456 5.788-13.653 5.788-13.653a15.921 15.921 0 01-8.283 1.43s-2.523 11.063-5.559 14.395c-3.035 3.332-1.767 14.462-5.491 10.226-3.723-4.236-9.632-11.035-13.234-17.754-3.602-6.719-4.628-7.609-4.628-7.609l-6.745-2.293s.85 1.618.189 2.212c5.841 7.96 12.438 18.415 21.14 30.49a89.733 89.733 0 0115.151 37.95c1.915 12.048 3.764 19.306.269 18.685-3.494-.62-17.538-8.553-23.636-14.408-10.415-9.983-13.774-15.191-16.122-20.412a154.687 154.687 0 01-9.444-28.507c-4.047-1.511-4.357-1.983-4.357-1.983s2.226 10.914.904 11.09c-1.322.175-17.013-13.208-17.013-13.208l-3.736 1.012s15.379 11.481 22.138 21.99c6.759 10.51 7.447 13.788 7.447 13.788a112.675 112.675 0 01-12.951-4.749c-8.729-3.629-12.304-4.897-18.402-10.239-6.098-5.343-10.982-9.039-10.982-9.039l-2.158.188s1.808 6.004 1.619 6.894c0 0 8.567 7.043 14.772 9.754a114.349 114.349 0 0122.504 12.749c15.312 10.982 26.671 20.089 35.454 25.849 8.783 5.761 13.694 14.841 16.108 21.33 2.415 6.489 1.012 17.147 2.024 23.434 1.012 6.287-1.16 7.609-4.708 4.452s-9.93-9.269-15.272-12.871c-5.343-3.602-21.748-19.508-21.748-19.508s-1.605 2.591-2.887 2.887c9.039 8.095 19.238 18.82 17.539 18.888-1.7.067-31.03-1.228-31.03-1.228s2.307 1.687-.58 4.816c13.936.54 15.123 1.525 22.935 1.498 7.811-.027 27.495 4.641 32.108 16.621 4.614 11.98 8.554 43.171 5.1 64.015 0 0-.715 4.047 17.539 3.454 18.253-.594 27.197-1.673 25.417-6.395-1.781-4.722-5.248-13.734-6.355-20.776-1.106-7.043-5.18-30.166-3.966-48.123 1.214-17.956 10.186-33.957 24.635-38.989 14.449-5.032 24-4.614 42.375-14.84a7.897 7.897 0 01-2.374-3.157c-10.942 4.843-28.858 11.764-39.421 11.575 3.454-5.895 6.988-12.236 13.491-14.84 6.503-2.604 18.267-6.611 18.267-6.611a44.252 44.252 0 01-4.115-1.929c-4.439 1.552-11.913 3.225-12.978 2.051-1.066-1.174 5.747-12.614 5.747-12.614s-4.628.27-5.761.27z" fill="#654209"/><g style="mix-blend-mode:multiply" opacity=".3" fill="#654209"><path d="M267.677 222.227c-10.942 4.844-28.858 11.765-39.421 11.576 3.454-5.896 6.988-12.237 13.491-14.84 6.503-2.604 18.267-6.611 18.267-6.611a44.252 44.252 0 01-4.115-1.929c-4.439 1.551-11.913 3.224-12.978 2.05-1.066-1.173 5.747-12.614 5.747-12.614s-4.574.297-5.707.297c0 0-2.698 11.67-15.987 20.844-13.289 9.174-22.57 17.983-23.92 15.946-1.349-2.037-.634-13.235-1.605-22.935-1.349-13.221 1.201-24.499 7.393-38.355 6.193-13.855 7.312-21.086 17.539-32.243-2.847-3.508-2.132-5.397-2.132-5.397s-7.649 10.874-9.727 10.793c-2.078-.081 2.078-12.587 2.078-12.587l-6.139-2.698s-1.349 18.806-4.789 30.678c-3.44 11.872-16.716 40.177-20.237 40.474-3.521.296-.688-25.161 0-35.63.688-10.469 3.117-16.959 5.181-20.048 2.064-3.09 6.219-11.4 6.219-11.4s-5.073 1.039-8.364-.796c-7.245 13.491-9.444 30.935-9.889 41.971-.688 18.037-1.538 22.422-4.169 21.734-2.631-.688-5.167-8.54-6.368-12.857-1.201-4.317-6.03-12.493-7.352-17.377-1.323-4.883-.729-7.932 5.49-18.388 6.22-10.456 5.788-13.653 5.788-13.653a15.921 15.921 0 01-8.283 1.43s-2.523 11.063-5.559 14.395c-3.035 3.332-1.767 14.462-5.491 10.226-3.723-4.236-9.632-11.035-13.234-17.754-3.602-6.719-4.628-7.609-4.628-7.609l-6.745-2.293s.85 1.618.189 2.212c5.841 7.96 12.438 18.415 21.14 30.49a89.733 89.733 0 0115.151 37.95c1.915 12.048 3.764 19.306.269 18.685-3.494-.62-17.538-8.553-23.636-14.408-10.415-9.983-13.774-15.191-16.122-20.412a154.687 154.687 0 01-9.444-28.507c-4.047-1.511-4.357-1.983-4.357-1.983s2.226 10.914.904 11.09c-1.322.175-17.013-13.208-17.013-13.208l-3.736 1.012s15.379 11.481 22.138 21.99c6.759 10.51 7.447 13.788 7.447 13.788a112.675 112.675 0 01-12.951-4.749c-8.729-3.629-12.304-4.897-18.402-10.239-6.098-5.343-10.982-9.039-10.982-9.039l-2.158.188s1.808 6.004 1.619 6.894c0 0 8.567 7.043 14.772 9.754a114.349 114.349 0 0122.504 12.749c15.312 10.982 26.671 20.089 35.454 25.849 8.783 5.761 13.694 14.841 16.108 21.33 2.415 6.489 1.012 17.147 2.024 23.434 1.012 6.287-1.16 7.609-4.708 4.452s-9.93-9.269-15.272-12.871c-5.343-3.602-21.748-19.508-21.748-19.508s-1.605 2.591-2.887 2.887c9.039 8.095 19.238 18.82 17.539 18.888-1.7.067-31.03-1.228-31.03-1.228s2.307 1.687-.58 4.816c13.936.54 15.123 1.525 22.935 1.498 3.072.081 6.126.501 9.106 1.255a.84.84 0 01.702-.823c10.509-.904 16.756 6.637 21.585 13.922a.544.544 0 010 .594c.31.54.584 1.099.823 1.673 4.614 11.98 8.554 43.171 5.1 64.015 0 0-.715 4.047 17.538 3.454 18.254-.594 27.198-1.673 25.418-6.395-1.781-4.722-5.248-13.734-6.355-20.776-1.106-7.043-5.288-30.166-4.074-48.123 1.214-17.956 10.186-33.957 24.635-38.989 14.449-5.032 24-4.614 42.375-14.84a7.891 7.891 0 01-2.374-3.171zm-97.136-13.41c0-.512.904-1.106 1.349-.553 3.036 4.047 4.047 8.675 4.87 13.383.419-4.641 1.215-9.255 3.697-13.329.283-.486 1.268-.661 1.268.068 0 3.521-.89 6.934-1.106 10.428a33.805 33.805 0 001.592 10.402 74.822 74.822 0 012.023 18.118 124.45 124.45 0 01-5.113 35.779c-.162.458-1.2.944-1.349.242-2.199-9.808-.661-19.697-1.066-29.586a253.672 253.672 0 00-3.143-31.757 29.186 29.186 0 00-.877-3.495c-1.12-3.211-2.253-6.327-2.091-9.7h-.054zm-15.717 17.795c-8.189-5.154-16.783-10.132-23.367-16.945a42.695 42.695 0 01-6.745-9.862 89.128 89.128 0 01-8.918-18.091c-.229-.58.945-1.349 1.349-.702 5.14 9.053 9.012 18.739 16.554 26.537 6.584 6.746 14.516 12.29 22.22 17.997.58.526-.432 1.552-1.093 1.066zm15.164 25.242c-1.43-7.137-5.397-13.181-9.444-19.333-1.241-1.578-2.496-3.13-3.696-4.735-.432-.526.566-1.349 1.133-.945 6.651 4.479 15.542 10.793 16.715 18.739.769 5.114-.634 10.186-.553 15.286.194 5.343.117 10.692-.229 16.027 0 .54-1.201 1.201-1.349.405-1.808-8.419-.864-16.958-2.577-25.444zm7.973 87.827c0 .715-1.349 1.146-1.349.256-.121-8.338-2.415-16.527-2.631-24.864-.135-5.545-.31-11.09-.445-16.648a.543.543 0 01-.31-.472c-.243-5.64-.918-11.265-.203-16.905.081-.512 1.228-1.227 1.349-.418 1.835 9.714 5.586 19.346 6.058 29.208.472 9.862-1.983 19.873-2.455 29.843h-.014zm8.769-46.558c-.661 7.069-1.349 14.125-2.59 21.127-.081.513-1.201 1.241-1.349.405a61.74 61.74 0 01.445-24.419 64.182 64.182 0 013.778-17.903c.202-.512 1.511-.917 1.349-.081-1.295 6.854-.931 13.95-1.619 20.871h-.014zm2.806-70.788a116.639 116.639 0 014.399-19.211c.188-.567 1.349-.917 1.349-.067-.095 7.325 1.47 14.516.836 21.855a101.35 101.35 0 01-3.872 20.102c-.135.485-1.214.998-1.349.256a73.664 73.664 0 01-.688-22.503c-.337.135-.729.054-.661-.432h-.014zm35.468 4.277c-11.143 11.94-24.594 22.193-33.39 35.792-.364.566-1.443.566-1.241-.257 2.536-9.794 9.579-16.917 17.43-23.514a.867.867 0 01.27-.419c5.221-4.33 10.172-8.944 16.189-12.438.729-.405 1.269.31.742.836z" opacity=".3"/><path d="M144.018 272.09a46.409 46.409 0 0113.046 5.586 17.41 17.41 0 00-13.046-5.586z" opacity=".3"/></g><g style="mix-blend-mode:multiply" opacity=".3" fill="#654209"><path d="M83.025 176.992a61.368 61.368 0 0012.627 10.145c8.635 5.477 18.159 8.54 27.576 12.439a255.99 255.99 0 00-3.629-4.695c-1.835-.58-5.707-1.889-11.629-4.358-8.729-3.629-12.304-4.897-18.402-10.239-6.098-5.343-10.941-8.985-10.941-8.985l-1.43.107a34.645 34.645 0 015.828 5.586zm29.059-5.302c-1.349.162-17.012-13.208-17.012-13.208l-1.848.486c6.584 6.354 14.84 11.116 21.046 17.794 5.896 6.355 8.702 14.773 13.275 21.869 5.397 8.351 12.371 14.301 20.979 20.008 7.838 5.194 15.879 10.105 23.137 15.919-2.145-5.814-2.226-12.074-4.601-17.889a124.283 124.283 0 00-1.659-3.953c1.444 8.702 2.253 13.721-.648 13.194-3.507-.674-17.538-8.553-23.636-14.408-10.415-9.983-13.774-15.191-16.122-20.412a154.608 154.608 0 01-9.443-28.507c-4.048-1.511-4.358-1.983-4.358-1.983s2.212 10.914.89 11.09zm34.227 96.083c2.833-.337 5.815 1.997 7.825 3.454a75.935 75.935 0 0117.633 17.444c.648-2.847-.175-5.963-.809-8.756a79.634 79.634 0 01-1.525-8.81 111.368 111.368 0 00-.917-6.408c-.014 2.256.13 4.51.431 6.746 1.012 6.287-1.16 7.609-4.708 4.452s-9.929-9.269-15.272-12.871c-5.342-3.602-21.748-19.454-21.748-19.454s-1.605 2.59-2.887 2.887c9.039 8.095 19.239 18.82 17.539 18.888-1.7.067-31.03-1.228-31.03-1.228s2.307 1.686-.58 4.816c13.936.54 15.124 1.525 22.935 1.498a37.15 37.15 0 015.707.553c2.509-.985 4.506-2.833 7.406-3.211zm97.055-67.631h-.459a25.812 25.812 0 01-1.861 4.763c.823-1.579 1.619-3.171 2.32-4.763zm-62.787-17.794c0 5.005 0 10.024.283 15.029.203 4.695.634 9.579 2.995 13.855a23.386 23.386 0 003.791-8.432c-.904 1.187-1.686 1.862-2.212 1.916-3.508.324-.688-25.161 0-35.63.688-10.469 3.116-16.958 5.18-20.048 2.064-3.089 6.22-11.4 6.22-11.4s-5.073 1.039-8.365-.796a81.803 81.803 0 00-7.501 21.937c.256 7.838-.31 15.69-.391 23.569zm-15.987-33.35c-3.508 6.044-8.324 12.708-7.002 19.832 1.322 7.123 5.397 13.491 8.419 20.236a7505.02 7505.02 0 019.092 20.75 35.32 35.32 0 00.81-9.66 1.419 1.419 0 01-1.498.405c-2.698-.661-5.167-8.54-6.367-12.857-1.201-4.317-6.031-12.493-7.353-17.377-1.322-4.884-.728-7.932 5.491-18.388 6.219-10.456 5.788-13.653 5.788-13.653a17.972 17.972 0 01-3.387 1.133 34.745 34.745 0 01-3.993 9.579zm44.52 26.119a45.046 45.046 0 00-3.116 3.764 38.327 38.327 0 00-7.38 21.235c-.256 7.595 1.066 15.19.999 22.813.191 3.835.011 7.68-.54 11.481-.648 3.265-1.579 6.462-2.213 9.74a62.061 62.061 0 0011.994-9.767c-3.157 2.293-5.208 3.413-5.788 2.55-1.349-2.038-.634-13.235-1.605-22.935-1.349-13.221 1.201-24.5 7.393-38.355.027-.135.094-.297.256-.526z" opacity=".3"/><path d="M267.677 222.227c-10.941 4.844-28.857 11.765-39.421 11.576 3.454-5.896 6.989-12.237 13.491-14.84 6.503-2.604 18.267-6.611 18.267-6.611a44.252 44.252 0 01-4.115-1.929c-4.438 1.551-11.912 3.224-12.978 2.05-1.066-1.173 5.747-12.614 5.747-12.614l-3.804.203c-2.334 5.477-5.518 10.671-7.879 16.081-2.968 6.745-9.242 11.724-14.624 17.039-5.1 5.032-10.186 10.024-15.407 14.948-5.019 4.722-10.119 9.795-12.695 15.96-3.13 7.38-2.82 15.609-3.387 23.394-.688 8.958-1.349 18.064 0 26.982 1.066 7.501 2.604 14.84 2.901 22.435.202 4.331 1.052 9.943-1.767 13.775-.189.283-.742.661-1.107.351-7.676-6.746-4.195-17.282-7.582-25.633-.701 7.19-.58 15.271-5.517 21.113-.23.283-.891.459-1.093.068-4.236-7.717-1.673-17.539-3.022-25.782a97.542 97.542 0 00-4.425-18.051c2.469 14.543 3.602 33.863 1.214 48.244 0 0-.715 4.047 17.538 3.454 18.254-.594 27.198-1.673 25.417-6.395-1.78-4.722-5.248-13.734-6.354-20.776-1.106-7.043-5.248-30.085-4.034-48.042 1.215-17.956 10.186-33.957 24.635-38.989 14.449-5.032 24.001-4.614 42.375-14.84a7.891 7.891 0 01-2.374-3.171z" opacity=".3"/></g><path d="M302.551 109.456c11.333-11.481 4.048-35.253-19.332-36.993 1.929-3.683-3.279-4.816-3.279-4.816s4.506-18.051-16.108-21.033a18.365 18.365 0 00-2.267-5.909s.634-17.241-13.491-23.771a21.126 21.126 0 00-23.919 3.845c-4.169-8.257-12.817-4.047-12.817-4.047-1.349-8.486-11.332-12.29-16.189-4.304 0 0-5.1-12.264-16.189-4.33-6.287-6.598-17.255-3.239-19.738.498 1.039-12.735-28.857-12.479-27.414 8.648-7.69-2.981-12.992 1.457-14.233 6.098-4.654-7.19-9.646 4.803-9.646 4.803-11.71-10.253-31.164 10.982-13.49 24.284-9.445 1.713-4.75 9.444-4.75 9.444-8.094-2.415-7.447 4.627-7.447 4.627-11.737-3.13-23.38 10.928-5.086 25.201-9.444 2.226-7.933 11.724-3.872 12.925-9.012.202-3.494 10.914 1.7 12.047-15.69 7.258-.62 23.326 13.896 21.707-1.66 23.92 18.186 24.932 18.186 24.932-7.393 17.268 19.427 20.237 31.029 11.305 3.764 9.849 16.365-.242 16.365-.242 0 12.142 27.643 11.548 38.463 3.386 4.047 16.189 30.517 9.066 32.378-1.714 0 0 17.539 11.819 32.473 3.103 13.384-8.094 10.456-14.988 8.891-19.427 6.853.513 14.84-10.793 13.707-16.189 7.825 11.575 47.88-13.248 22.179-34.078z" fill="#B8CD0E"/><path d="M302.551 109.456c11.333-11.481 4.048-35.253-19.332-36.993 1.929-3.683-3.279-4.816-3.279-4.816s4.506-18.051-16.108-21.033a18.365 18.365 0 00-2.267-5.909s.634-17.241-13.491-23.771a21.126 21.126 0 00-23.919 3.845c-4.169-8.257-12.817-4.047-12.817-4.047-1.349-8.486-11.332-12.29-16.189-4.304 0 0-5.1-12.264-16.189-4.33-6.287-6.598-17.255-3.239-19.738.498 1.039-12.735-28.857-12.479-27.414 8.648-7.69-2.981-12.992 1.457-14.233 6.098-4.654-7.19-9.646 4.803-9.646 4.803-11.71-10.253-31.164 10.982-13.49 24.284-9.445 1.713-4.75 9.444-4.75 9.444-8.094-2.415-7.447 4.627-7.447 4.627-11.737-3.13-23.38 10.928-5.086 25.201-9.444 2.226-7.933 11.724-3.872 12.925-9.012.202-3.494 10.914 1.7 12.047-15.69 7.258-.62 23.326 13.896 21.707-1.66 23.92 18.186 24.932 18.186 24.932-7.393 17.268 19.427 20.237 31.029 11.305 3.764 9.849 16.365-.242 16.365-.242 0 12.142 27.643 11.548 38.463 3.386 4.047 16.189 30.517 9.066 32.378-1.714 0 0 17.539 11.819 32.473 3.103 13.384-8.094 10.456-14.988 8.891-19.427 6.853.513 14.84-10.793 13.707-16.189 7.825 11.575 47.88-13.248 22.179-34.078zm-164.267-8.513c.148 2.954-1.133 5.666-4.924 6.098a21.777 21.777 0 011.268 16.068c-2.159 5.882-11.238 7.838-13.127 2.118a7.699 7.699 0 01-11.646 2.062 7.705 7.705 0 01-2.425-3.708c-2.698 2.32-7.312 4.924-10.442 1.956-.081-.108-.189-.189-.27-.297a15.877 15.877 0 01-6.624 3.859c-3.157.769-6.53-.675-7.285-3.737-.931-3.684 1.983-6.746 5.855-7.38a7.03 7.03 0 01.917-5.208c-4.991 1.174-10.536.257-11.305-5.221a5.285 5.285 0 012.869-5.605 5.3 5.3 0 012.163-.547c-2.145-3.912 2.51-7.028 6.867-8.094a6.031 6.031 0 01-2.2-6.139c-6.529.162-14.542-5.76-11.264-11.98 3.953-7.447 10.577-2.806 15.609.89a4.223 4.223 0 013.467-4.276c-2.94-2.9-4.384-7.299-1.794-10.793 2.36-3.251 5.828-3.386 8.796-1.349a3.52 3.52 0 012.698-2.806c-4.128-2.698-2.104-6.503 1.592-9.215-4.047.608-9.08 1.269-11.602-1.349-2.145-2.266-.958-3.75 1.524-4.114a2.291 2.291 0 01-.418-1.862c.513-1.538.378-1.214-.971-2.496a5.302 5.302 0 01-1.039-5.882c1.214-3.224 5.275-4.776 7.164-1.633.116-.013.234-.013.351 0 3.71.162 5.059 4.426 5.221 7.326 3.71-2.266 8.526-1.349 9.727 2.388 1.888-2.887 4.762-5.005 8.526-4.614-1.983-3.831-3.211-9.16 2.172-10.982a6.246 6.246 0 017.73 3.157c1.916-2.873 6.652-2.226 7.933 1.538 2.321-2.037 5.302-4.344 8.095-4.047a12.772 12.772 0 012.927-3.872c4.156-3.67 8.257-2.415 11.036 1.35 1.686-4.507 7.757-9.27 11.373-5.788a5.399 5.399 0 014.668-4.763 6.18 6.18 0 017.177 5.747 14.083 14.083 0 01-2.064 8.284c5.504-.742 11.589 1.524 11.265 6.745a9.208 9.208 0 016.881-1.686c-.243-3.845 1.511-8.823 6.947-7.541 5.437 1.281 5.761 5.909 4.21 9.807 3.278-1.686 7.123-.256 7.797 3.414 2.227-2.82 5.802-6.085 9.62-5.127 3.818.958 6.125 4.169 5.531 7.704-.998 5.841-8.742 10.968-15.366 10.05 3.912 5.896-2.253 12.601-9.916 12.02a7.34 7.34 0 01-5.599 7.988 5.398 5.398 0 01-5.235-.958c-2.104 5.855-12.627 7.77-16.041 1.74-1.902 1.106-6.354-.445-7.878-2.698a10.371 10.371 0 01-1.538-3.845 9.876 9.876 0 01-6.557.62c1.579 2.2 2.698 5.033-.189 6.746a9.51 9.51 0 01-6.61.958c4.182 3.926 7.015 9.511 5.396 14.705-1.349 4.452-7.272 9.862-11.022 5.275-1.349 4.047-5.194 10.118-10.092 6.746l-.256-.216a8.09 8.09 0 01-9.673 2.469zm121.244 38.517c-4.749 2.118-15.622 3.319-18.55-1.349a5.766 5.766 0 01-1.767.904 16.87 16.87 0 01-1.282.35c.136.243.253.496.351.756 1.605 4.303-.985 9.241-4.533 12.142-4.331 3.656-12.601 6.435-15.016 1.686-1.646 5.194-6.098 9.309-13.005 7.663a13.256 13.256 0 01-8.837-6.449c-2.9 1.525-6.273 1.903-7.959-1.173-4.668 3.683-9.444.593-10.793-4.25-1.903 3.022-4.587 6.125-8.621 6.462a8.487 8.487 0 01-7.272-3.939c-2.037-2.955-2.941-7.366-1.12-10.159a7.812 7.812 0 01-5.625-1.578 3.464 3.464 0 01-.918-1.876c-.31-1.349 0-.755-1.497-.877a7.323 7.323 0 01-5.113-2.091 6.091 6.091 0 01-1.336-5.21 6.095 6.095 0 011.166-2.504 6.098 6.098 0 012.153-1.73c3.035-1.578 6.529-1.214 9.862-.35-5.194-6.49 7.015-18.038 16.189-10.672 1.052-1.821 3.049-3.521 4.708-2.563 1.215-5.316 9.62-11.279 12.358-5.855.43-.262.882-.488 1.349-.675 4.25-1.686 8.176.999 10.415 4.048 2.024-4.736 5.761-8.351 11.819-7.758.809-7.056 11.386-11.022 16.904-5.14 3.454 3.683 1.659 9.363-1.565 13.1a8.716 8.716 0 0110.847 5.801 9.837 9.837 0 017.447-5.949 13.204 13.204 0 0110.091 3.062c2.415 2.091 4.439 5.396 3.225 8.391a9.444 9.444 0 01-4.722 4.749c3.076.095 5.868 1.215 6.637 4.344.85 3.643-2.55 7.191-5.99 8.689z" fill="#00973C" opacity=".3"/><path d="M302.551 109.456c11.333-11.481 4.047-35.252-19.333-36.993 1.93-3.683-3.278-4.816-3.278-4.816s4.506-18.051-16.108-21.033a18.366 18.366 0 00-2.267-5.909s.634-17.241-13.491-23.771a21.1 21.1 0 00-14.044-1.579c.143.185.274.379.391.58a3.299 3.299 0 01.081 3.184 10.795 10.795 0 0111.225 2.699c3.683 3.764 3.13 8.782.364 12.64 8.095-1.901 7.002 8.095 3.13 12.655a36.344 36.344 0 01-10.523 8.095 6.747 6.747 0 014.358 1.93 4.048 4.048 0 01.661 4.532c3.332-1.214 7.163-1.2 7.001 1.484a9.718 9.718 0 018.095-2.32c4.047 1.066 4.735 5.396 3.103 8.405a34.533 34.533 0 01-8.095 9.066 4.476 4.476 0 013.009 4.047 10.643 10.643 0 019.727-3.521c4.708.863 5.558 6.03 4.857 9.525a22.453 22.453 0 01-4.142 8.512 7.202 7.202 0 015.869-.62 4.735 4.735 0 013.264 5.019c4.668-3.643 13.019-7.569 14.287-.594.527 2.927-.755 6.125-2.833 8.998a11.795 11.795 0 016.53 3.022 7.247 7.247 0 01-.162 9.552c-2.698 3.238-6.745 3.751-10.415 2.496 2.698 5.504-2.32 12.466-8.31 9.444a18.22 18.22 0 01-9.539 11.413 26.986 26.986 0 01-12.142 2.847c.864 2.86.864 5.787-1.605 8.094-3.454 3.225-7.757 1.781-10.537-.957 1.242 5.531 1.835 11.588-4.168 14.934-6.004 3.346-10.011-.189-12.682-4.506a16.524 16.524 0 01-5.18 10.091 10.656 10.656 0 01-11.36 1.174c-2.698-1.349-3.656-4.155-3.616-6.907a7.324 7.324 0 01-7.298 2.55 7.208 7.208 0 01-5.397-4.965 13.748 13.748 0 01-6.502 4.6c-5.397 1.822-10.483-2.131-10.388-6.543-3.4 3.4-8.986 6.112-12.871 2.226a5.39 5.39 0 01-1.605-2.833 12.113 12.113 0 01-3.346.175c-4.843-.485-8.459-4.802-7.542-8.85a4.516 4.516 0 01-6.098-1.039c-1.268 5.896-5.922 11.765-11.534 13.667-3.495 1.187-9.08-.175-10.092-3.778a8.97 8.97 0 011.835-7.77c-2.078.917-4.358 1.349-6.152.108a5.923 5.923 0 01-1.983-2.173 9.696 9.696 0 01-4.452 1.592c-5.329.567-4.992-4.627-3.683-8.189-2.28 1.606-5.248 3.063-7.852 1.889a7.137 7.137 0 01-3.818-6.206 11.843 11.843 0 011.241-6.745 6.423 6.423 0 01-3.184-7.474 9.211 9.211 0 01-9.943 1.834 7.442 7.442 0 01-2.698-1.996 10.72 10.72 0 01-6.745-.108 9.728 9.728 0 01-5.761-7.933c-2.968 7.717 8.702 17.282 20.075 16.014-1.66 23.92 18.186 24.931 18.186 24.931-7.394 17.269 19.427 20.237 31.029 11.306 3.764 9.848 16.365-.243 16.365-.243 0 12.142 27.643 11.548 38.463 3.386 4.047 16.19 30.517 9.066 32.378-1.713 0 0 17.539 11.818 32.473 3.103 13.383-8.095 10.456-14.989 8.891-19.427 6.853.512 14.84-10.793 13.707-16.189 7.825 11.534 47.88-13.289 22.179-34.119z" fill="#549F31" opacity=".3"/><path d="M145.394 258.424s9.322-4.29 6.745-12.547c-2.577-8.256-14.381-6.556-16.688-5.396 3.359-7.488-3.548-10.712-7.15-9.242.094-2.401-1.444-2.563-2.456-2.212 1.646-4.816-5.882-9.997-10.914-4.533-2.442-2.24-9.039-.796-10.078.755-.121-2.698-4.128-2.495-6.26-1.106.553-6.907-18.2-5.869-16.553 6.746-5.491-2.402-10.348 1.592-10.254 4.047 0 0-8.769-.931-9.443 8.23-.675 9.16 10.563 10.334 10.563 10.334s-8.364 5.072.243 10.59c-3.21 2.375-.283 9.66 9.444 8.095-.729 3.278 5.396 4.411 7.528.499 1.349 4.047 9.7 6.098 14.489 2.779 1.349 3.117 6.328 2.186 8.675-1.47 3.885 4.398 20.668 7.946 19.994-5.559 4.964 1.417 12.425-3.17 12.115-10.01z" fill="#AFC90C"/><path d="M152.139 245.877c-2.577-8.283-14.381-6.556-16.688-5.396 3.359-7.488-3.548-10.712-7.15-9.242.094-2.401-1.444-2.563-2.456-2.212 1.646-4.816-5.882-9.997-10.914-4.533-2.442-2.24-9.039-.796-10.078.755-.121-2.698-4.128-2.495-6.26-1.106.553-6.907-18.2-5.869-16.553 6.746-5.491-2.402-10.348 1.592-10.254 4.047 0 0-8.769-.931-9.443 8.23-.675 9.16 10.563 10.334 10.563 10.334s-8.364 5.072.243 10.59c-3.21 2.375-.283 9.66 9.444 8.095-.729 3.278 5.396 4.411 7.528.499 1.349 4.047 9.7 6.098 14.489 2.779 1.349 3.117 6.328 2.186 8.675-1.47 3.885 4.398 20.668 7.946 19.994-5.559 4.924 1.511 12.425-3.076 12.142-9.916-.027-.094 9.295-4.384 6.718-12.641zm-40.581-4.425c2.01 3.467-2.145 6.462-6.138 6.948 2.01 6.853-1.174 15.447-8.958 17.781-3.967 1.174-9.754 1.349-10.308-3.413v-.202c-3.224 1.2-6.516 1.349-8.094-1.997-1.35-2.914.094-5.046 2.51-6.354a5.396 5.396 0 01-3.023-4.965c-3.777.121-7.245-.796-8.702-3.616-3.764-7.298 5.559-10.05 11.913-8.229a.442.442 0 01.202.135 8.348 8.348 0 013.157-3.845 4.746 4.746 0 010-1.511 9.986 9.986 0 014.223-6.004 8.934 8.934 0 016.395-2.037 3.239 3.239 0 012.698 3.4 6.312 6.312 0 017.946 3.17c5.194-1.835 13.613-2.55 14.179 3.508.365 4.007-3.912 7.447-8 7.231z" fill="#AFC90C" opacity=".6"/><path d="M152.139 245.877c-2.576-8.283-14.381-6.556-16.688-5.396 3.359-7.488-3.548-10.712-7.15-9.242.094-2.401-1.444-2.563-2.456-2.212 1.633-4.749-5.652-9.835-10.671-4.749v.243a5.152 5.152 0 015.504.863c2.698 2.294 2.698 6.031 1.214 9.147a7.926 7.926 0 016.382 2.064 9.034 9.034 0 011.983 7.731 11.88 11.88 0 019.147 1.443c5.167 3.575-.675 8.311-4.951 9.7v.068a5.964 5.964 0 01-1.147 5.207 7.517 7.517 0 01-4.992 2.982 9.444 9.444 0 01-1.147 2.793c-2.617 4.384-8.823 6.124-12.263 3.197a7.508 7.508 0 01-1.255 1.443c-1.349 1.12-3.494 2.28-5.396 1.633a3.683 3.683 0 01-1.997-1.66c-5.288 2.618-12.303 2.469-14.03-1.564a12.374 12.374 0 01-9.066.094 6.286 6.286 0 01-3.17-3.454 6.112 6.112 0 01-3.697-1.254c-1.727-1.35-2.267-3.076-1.35-4.587a4.435 4.435 0 01-4.272-2.789 4.441 4.441 0 01-.314-1.771c-1.35 2.01-2.01 5.005 2.887 8.094-3.211 2.375-.284 9.66 9.443 8.095-.728 3.278 5.397 4.411 7.529.499 1.349 4.047 9.7 6.098 14.489 2.779 1.349 3.117 6.327 2.186 8.675-1.47 3.885 4.398 20.668 7.946 19.993-5.559 4.925 1.511 12.426-3.076 12.142-9.916-.121.095 9.201-4.195 6.624-12.452z" fill="#AFC90C"/><path d="M80.502 239.375a4.838 4.838 0 00-4.048-1.08 5.396 5.396 0 00-3.156 1.808c-.35.231-.665.513-.931.837a2.965 2.965 0 00-.068 3.683 4.044 4.044 0 003.859 1.686c3.44-.189 7.042-4.128 4.344-6.934zm4.762 4.775c-1.254-.917-3.008.338-3.521 1.349a1.353 1.353 0 00.135 1.633c.14.121.306.209.486.256a1.225 1.225 0 001.349.135c.998-.472 3.035-2.266 1.551-3.373zm-.85 6.638h-.094a2.314 2.314 0 00-1.862.904 1.47 1.47 0 00-.5 1.578c.163.513.999.661 1.471.567a2.294 2.294 0 001.93-2.213c-.041-.485-.365-.728-.945-.836zm38.274 10.901c-.566-1.741-2.523-2.24-4.303-1.592a6.081 6.081 0 00-3.144 2.469l-.27.283a3.793 3.793 0 00-.661 3.751 2.875 2.875 0 002.779 1.834 6.29 6.29 0 004.452-2.199 4.658 4.658 0 001.147-4.546zm-12.061 4.56c-.486 0-1.039.89-.418.89s1.106-.89.418-.89zm1.349-17.66l-.337.202a3.043 3.043 0 00-2.145 2.105c-.324 1.012-.121 2.509 1.349 2.698a3.926 3.926 0 003.832-3.723c0-1.161-1.66-1.768-2.699-1.282zm-11.521 18.793a3.327 3.327 0 00-3.217 2.093c-.17.424-.25.878-.237 1.334a.944.944 0 00.661.877 2.884 2.884 0 002.618-.405 3.65 3.65 0 001.349-.972 1.722 1.722 0 00.363-1.844 1.728 1.728 0 00-1.537-1.083zm41.458-10.671c-.499-.661-1.538-.257-2.118 0-.376.208-.692.51-.917.877a2.937 2.937 0 00-.877 1.794.93.93 0 00.391.809.416.416 0 00-.27 0c-.728 0-1.592 1.349-.661 1.349.621 0 1.349-.944.958-1.241.271.209.592.344.931.391a2.702 2.702 0 002.091-.755 2.333 2.333 0 00.472-3.224z" fill="#D2D600"/><path d="M53.25 201.991c-.985-1.349-2.928-1.255-4.439-.634a6.55 6.55 0 00-3.926 4.438 2.064 2.064 0 00.607 2.132 2.85 2.85 0 002.401.931 6.847 6.847 0 004.628-2.698c.216-.288.398-.601.54-.931.108-.2.19-.413.243-.634-.135.485.161-.432.188-.54a2.483 2.483 0 00-.242-2.064zm-6.597 9.781c-.526-.688-1.889 0-2.388.27-.5.269-1.417 1.227-1.35 2.01v.135a1.066 1.066 0 001.053.958h.121a2.699 2.699 0 001.822-.729c.456-.372.754-.902.836-1.484a1.134 1.134 0 00-.094-1.16z" fill="#AFC90C"/><path d="M36.17 188.243a5.402 5.402 0 00-3.427 1.039 4.65 4.65 0 00-2.131 3.157 2.347 2.347 0 00.175 2.617c1.35 1.565 3.94.311 5.18-.647a6.082 6.082 0 002.362-4.223c.054-1.133-.985-1.835-2.159-1.943zm-7.366 9.431a2.4 2.4 0 00-.35-.5c-.513-.512-1.471 0-1.903.324a1.513 1.513 0 01-.148.149 1.559 1.559 0 00-.621 1.119l-.067.081a.58.58 0 00.202.837c.674.337 1.497-.081 2.077-.364.58-.284 1.16-1.039.81-1.646z" fill="#D2D600"/><g opacity=".4"><path d="M15.3 156.958c-2.294-.715-4.493 1.038-5.397 2.698a3.601 3.601 0 000 3.359 2.186 2.186 0 002.887 1.821 6.007 6.007 0 004.21-3.44c.728-1.713.458-3.75-1.7-4.438zm6.287 9.727c-1.93-1.606-4.48.62-5.167 2.226a1.348 1.348 0 00.161 1.673 2.175 2.175 0 001.93.62c.458.048.921-.017 1.349-.189 1.727-.634 3.36-2.941 1.727-4.33zm-8.554 8.661a2.482 2.482 0 00-.378.755c-.134.365-.108.742.324.837.162 0 .297 0 .459.081a1.929 1.929 0 001.996-1.781c-.04-1.39-1.942-.567-2.4.108z" fill="#96C01F" opacity=".4"/><path opacity=".4" d="M43.024 137.153c-1.754-1.956-4.91-.419-6.61.904a6.667 6.667 0 00-1.673 1.753 4.33 4.33 0 00-.904 4.52c.067.148.202.243.27.364.203.477.523.894.93 1.214 2.253 1.727 5.694-.404 7.083-2.091 1.39-1.686 2.617-4.722.904-6.664z" fill="#DDDA00"/><path opacity=".4" d="M49.999 139.972a1.486 1.486 0 00-.27-.377 1.505 1.505 0 00-1.592-.162c-.535.23-1 .598-1.35 1.066-.66.944-.593 2.536 1.107 2.239a2.914 2.914 0 001.822-1.147c.202-.35.62-1.119.283-1.619zm11.966 16.082c-.742-1.498-2.455-1.349-3.845-.648a5.573 5.573 0 00-2.32 2.698c-.742 1.754-1.025 4.776 1.902 4.574.117.013.234.013.35 0a5.061 5.061 0 004.008-2.644 4.364 4.364 0 00-.095-3.98z" fill="#96C01F"/></g><path opacity=".4" d="M107.754 203.313a2.794 2.794 0 00-3.157-1.552 5.536 5.536 0 00-3.791 2.888 2.975 2.975 0 00-.202 2.846c.065.087.137.168.215.243.081.567.54.863 1.134 1.039a4.802 4.802 0 004.047-1.349 4.052 4.052 0 001.754-4.115zm-8.257 8.769a2.86 2.86 0 00-2.482 1.552c-.324.688-.216 1.78.85 1.78a2.826 2.826 0 002.51-1.565c.336-.661.201-1.767-.878-1.767zm20.493-3.197a7.27 7.27 0 00-5.315 4.236 3.883 3.883 0 00-.216 2.981 2.955 2.955 0 003.305 1.484 5.652 5.652 0 002.698-1.349 7.62 7.62 0 003.117-3.804c.634-2.01-1.174-3.859-3.589-3.548z" fill="#AFC90C"/><path d="M71.072 191.319a4.213 4.213 0 00-1.849 1.619 1.513 1.513 0 00-.148.149 1.24 1.24 0 000 1.74c.567.675 1.74.324 2.374 0a3.063 3.063 0 001.565-2.766c-.04-.944-1.227-1.025-1.942-.742z" fill="#AFC90C"/><path d="M87.207 75.512a2.442 2.442 0 00-1.35-.796l-.229-.297c-1.74-1.929-4.614-.728-5.976.85a5.275 5.275 0 00-.472 5.397c.863 2.347 3.359 3.035 5.841 2.334a5.262 5.262 0 003.4-3.859 4.439 4.439 0 00-1.214-3.629zm9.753 10.456c-.606-.688-1.82-.419-2.563-.162-1.133.35-2.954 2.307-1.686 3.332l.175.108a1.47 1.47 0 001.444 1.538c1.916.067 3.076-1.916 3.157-3.4a1.74 1.74 0 00-.526-1.416z" fill="#569132" opacity=".3"/><path d="M93.804 96.572a2.698 2.698 0 00-2.51-1.201 5.801 5.801 0 00-4.236 2.186 5.396 5.396 0 00-1.133 2.495c-.079.54-.028 1.09.148 1.606.053.139.13.267.23.378a1.996 1.996 0 001.66 1.349 5.689 5.689 0 004.168-1.822c1.187-1.119 2.685-3.359 1.673-4.991z" fill="#82BA28" opacity=".5"/><path d="M85.264 104.612a2.143 2.143 0 00-1.096.019 2.142 2.142 0 00-.941.561 2.003 2.003 0 00-.823 1.903v.256a.865.865 0 00.89.796 2.408 2.408 0 001.876-.944c.222-.251.38-.552.458-.877 0-.176.149-.378.216-.58a.907.907 0 00-.58-1.134zm-7.015 13.545a3.226 3.226 0 00-4.048.648 5.894 5.894 0 00-1.672 3.008c-.46 1.822-.27 4.506 2.536 4.223a4.454 4.454 0 003.022-1.956c1.51-1.673 2.023-4.506.162-5.923zm10.617 2.186c-1.2.216-3.049 2.131-1.538 2.995h.095a2.515 2.515 0 002.766-2.253c.04-.54-.621-.85-1.323-.742z" fill="#569132"/><path d="M144.139 18.175c0-.23 0-.418-.458-.35-.459.067-1.768 1.213-.837 1.564.702.27 1.592-.728 1.295-1.214z" fill="#DDDA00"/><path d="M103.49 33.245a1.7 1.7 0 00-1.592-1.134 4.124 4.124 0 00-3.17 1.768 4.047 4.047 0 00-.796 2.415 1.754 1.754 0 001.35 1.538c.849.54 2.198-.108 2.94-.635a3.655 3.655 0 001.268-3.953zm-.687 10.212a1.351 1.351 0 00-.85-.62c-.257-.5-1.053-.473-1.673-.149-.62.324-2.01 1.795-1.43 2.631a1.551 1.551 0 001.7.729 2.983 2.983 0 001.983-1.188c.216-.377.526-.957.27-1.403zm11.764-2.28c-.203-.769-1.349-.647-2.011-.445h-.107a2.698 2.698 0 00-1.822 2.644v.135c0 1.174 1.201 1.552 2.24 1.174a2.834 2.834 0 001.7-3.508zm17.565-2.806a3.602 3.602 0 00-4.29-2.617 8.483 8.483 0 00-4.236 2.617c-2.348 1.822-3.791 5.086-3.198 7.474.472 1.93 2.442 2.55 4.493 2.159a9.89 9.89 0 006.448-5.275 6.259 6.259 0 00.783-4.358zm-.27-10.833c-.998-.904-2.604-.068-3.44.593a3.618 3.618 0 00-1.605 2.86c0 .985 1.065 1.35 2.05 1.242a3.809 3.809 0 002.375-1.444c.163-.202.308-.419.431-.647 0-.081 0-.149.068-.243a1.783 1.783 0 00.121-2.361z" fill="#82BA28" opacity=".5"/><path d="M145.205 2.998c-2.698.31-4.911 2.55-6.287 4.465-.202.297-.418.648-.62.985a5.563 5.563 0 00-.864 1.093 4.176 4.176 0 00-.627 3.276 4.176 4.176 0 001.976 2.687c2.199 1.187 5.208-.715 6.746-1.97a10.13 10.13 0 003.858-6.3 3.666 3.666 0 00-2.468-4.095 3.67 3.67 0 00-1.714-.141z" fill="#569132" opacity=".3"/><path d="M152.449 26.297a11.358 11.358 0 00-6.92 9.066c-.036.47.072.94.31 1.349.459 2.698 4.803 1.807 6.745.755a10.388 10.388 0 004.925-7.15c.418-2.833-1.633-5.356-5.06-4.02zm11.967-2.361a1.943 1.943 0 00-1.956-.108c-.796.31-1.673 1.214-1.349 2.023V26a.94.94 0 00.836.472 2.7 2.7 0 002.483-1.484.809.809 0 00-.014-1.052zm14.881-2.091a2.17 2.17 0 00.243-1.012c-.081-.931-.931-1.174-1.822-1.093a3.629 3.629 0 00-2.131 1.039c-1.012.904-1.349 2.604-.176 3.062.059.004.117.004.176 0 .042.028.087.05.135.068.485.068.979.002 1.43-.19a3.767 3.767 0 001.767-1.348c.14-.175.266-.36.378-.553v.027zm-6.381 95.489c-2.199-1.74-5.154-.175-6.894 1.349a7.901 7.901 0 00-2.388 3.643c-1.093 1.349-1.579 3.373 0 4.425 1.578 1.052 3.885.351 5.396-.58a12.805 12.805 0 004.183-4.412c.822-1.322 1.106-3.345-.297-4.425z" fill="#82BA28" opacity=".5"/><path d="M158.602 128.357c-1.687.391-3.684 1.996-3.643 3.723a2.9 2.9 0 00-.175.769c0 1.106 1.011 1.808 2.091 1.997a3.874 3.874 0 002.698-1.012 4.274 4.274 0 001.497-2.428c.473-1.552-.256-3.535-2.468-3.049z" fill="#569132"/><path d="M244.405 74.069a6.882 6.882 0 00-5.626.323c.378-2.145-.499-4.047-3.805-3.588a16.921 16.921 0 00-3.359 1.065l.108-.242c.486-1.134-.175-1.579-1.052-1.498-.81-.958-2.523-1.093-4.722-.688a8.097 8.097 0 00-6.192 5.572 6.558 6.558 0 00-6.26 1.767c-2.267-4.047-12.614-.755-13.491 5.14a5.261 5.261 0 00-2.874.702 4.695 4.695 0 00-6.179-1.35c-.148-2.55-1.349-4.964-4.614-3.925a8.836 8.836 0 00-5.909 9.282 7.501 7.501 0 00-3.184 3.386c-3.197.634-5.518 3.683-5.396 5.855-2.866.103-5.675.83-8.23 2.132-1.983 1.052-4.452 3.912-3.143 6.111 2.091 3.521 7.366 1.228 10.793-1.349.512 2.536 3.399 4.047 6.745 2.078a22.63 22.63 0 007.218-6.746 3.48 3.48 0 001.862.634c2.59.162 5.045-1.605 6.88-3.683.621 2.955 2.402 5.828 5.653 5.855 3.251.027 5.019-2.401 5.666-5.059 3.521 1.35 7.69-2.698 7.38-6.826 2.968 0 6.165-.095 8.54-1.795a6.313 6.313 0 001.861-2.158 21.414 21.414 0 005.801 2.158 11.32 11.32 0 006.827-.23c2.455-1.2 3.71-3.21 5.842-4.788 1.915-1.457 7.069-6.18 2.86-8.135zm4.654 12.451c-1.848-.917-4.29.621-5.585 1.674-1.295 1.052-2.698 2.995-2.483 4.721.378 2.699 4.048 2.28 5.842 1.066l.256-.189a8.216 8.216 0 002.699-2.266c1.146-1.632 1.43-3.872-.729-5.005zm9.16 1.485c.136-.262.197-.556.176-.85 0-.89-1.187-1.187-1.997-.783a5.64 5.64 0 00-1.43.918 2.355 2.355 0 00-.877 1.807.772.772 0 00.406.91.77.77 0 00.35.075c.125.014.252.014.377 0a3.092 3.092 0 001.984-.796c.248-.225.47-.479.661-.755.116-.127.215-.267.296-.418 0 0 .054-.081.054-.108z" fill="#178137" opacity=".3"/><path d="M149.063 222.888c-9.673-7.636-19.656-15.029-29.518-22.543-4.749-3.629-10.523-5.397-16.189-7.717a77.008 77.008 0 01-20.331-12.857c-.19-.148-.554.175-.392.337a81.453 81.453 0 0013.181 9.957c6.53 3.845 14.193 5.747 20.412 9.956 11.049 7.515 21.087 15.96 32.379 23.299.229.149.701-.243.458-.432zM131.66 206.16c-8.202-7.529-10.24-17.323-16.324-25.917-.189-.27-.661.108-.54.324 4.466 8.648 6.881 20.52 16.109 26.267.377.256 1.119-.351.755-.674zm31.799-13.114c-.081-.27-.594.095-.54.351 4.897 18.995 9.632 38.45 11.319 58.012 0 .769 1.268 0 1.349-.473.715-19.616-6.88-39.164-12.128-57.89zm9.227 65.472a72.081 72.081 0 00-4.047-17.336c-1.889-4.991-6.961-9.093-10.901-12.803-.175-.148-.539.203-.405.365 4.372 4.816 8.581 9.632 10.672 15.622 2.226 6.314 2.698 13.599 3.143 20.156.769 11.886.365 23.582 3.09 35.333.081.391.715 0 .661-.256-2.483-13.815-.769-27.279-2.213-41.081zm6.894-63.907c0-.229-.31-.108-.351 0-.593 3.252-2.212 6.381-2.468 9.66a88.174 88.174 0 000 12.142c0 .566.944 0 .971-.365.189-3.534 0-7.082 0-10.63 0-3.549 1.497-7.137 1.848-10.807zm9.768 12.479c-6.017 18.416-1.349 37.06-3.076 55.813-1.552 17.646-6.584 35.63-2.698 53.317.08.391.701 0 .661-.27-3.009-19.144 3.008-37.06 4.668-56.015 1.578-17.889-3.522-35.333 1.794-53.087.283-.85-1.147-.338-1.349.242zm-.472 119.356c-.958-4.965-1.269-9.97-1.862-14.975 0-.257-.459 0-.445.175.283 5.14 0 10.28.809 15.38.904 5.396 2.698 10.442 3.872 15.731.081.364.702 0 .675-.257-.351-5.423-1.93-10.658-3.049-16.054zm45.869-110.883c-11.157 12.493-27.157 20.155-38.503 32.554-.257.256.148.418.364.216 12.007-11.738 27.859-19.697 38.517-32.608.229-.311-.216-.378-.378-.162zm26.847 10.388c-11.696 3.966-23.609 6.651-35.468 10.145-.175 0-.31.418 0 .391 11.832-2.414 25.053-4.357 35.684-9.889.351-.188.364-.85-.216-.647zm-9.241-13.248c-3.251.62-6.503 1.349-9.808 1.821-.216 0-.486.445-.162.445a39.749 39.749 0 009.768-1.349c.458-.148.944-1.066.202-.917zm-90.93 66.349c-3.318-4.29-8.863-6.827-14.233-8.554-.296-.094-.782.446-.445.554a37.852 37.852 0 0114.085 8.526c.27.27.823-.256.593-.526z" fill="#845819" opacity=".3"/><path d="M274.935 181.484c-2.442-1.538-5.396-.337-7.447 1.201s-3.616 4.574-1.498 6.543c1.35 1.241 3.589.931 5.397 0a7.673 7.673 0 003.44-2.347c1.16-1.403 2.118-4.102.108-5.397zm-13.383 9.485c-1.12-1.35-3.292-.392-4.371.458-1.079.85-2.28 2.483-1.673 3.683.068 1.026 1.349 1.268 2.307 1.201a4.911 4.911 0 002.833-1.565c.985-.998 1.916-2.536.904-3.777zm-17.161 3.453l-.202-.189c-.621-.89-1.767-.418-2.482.135l-.297.284c-.823.364-1.525 1.349-.958 2.091.958 1.349 2.914 0 3.602-.931.27-.337.621-.971.337-1.39zm-18.388 3.953c-.459-1.7-2.995-1.214-4.236-.661a6.808 6.808 0 00-4.047 4.466c-.554 2.9 3.764 2.698 5.315 1.173l.297-.148c1.686-1.025 3.17-2.887 2.671-4.83zm91.186-6.368c-1.848-.944-4.182.675-5.397 1.741a9.878 9.878 0 00-3.143 4.317 1.214 1.214 0 00.351 1.349c.175.123.36.231.553.324a2.287 2.287 0 001.808.742 7.86 7.86 0 005.518-2.698c1.416-1.498 2.86-4.479.31-5.775zm-13.005 14.827a5.225 5.225 0 00-1.201.391c-1.093.5-2.267 1.714-1.349 2.833.917 1.12 2.698.257 3.359-.647a1.543 1.543 0 00.324-1.187.933.933 0 00-.542-1.442.937.937 0 00-.591.052zm21.464-6.084c-1.471-.702-3.643 0-4.951.647-2.186 1.039-4.884 2.766-4.695 5.248.041.328.156.642.337.918.084.178.188.345.31.499.958 1.187 2.955.634 4.196.229a11.717 11.717 0 004.277-2.442c1.362-1.2 2.779-4.02.526-5.099zm-19.211 19.386a1.179 1.179 0 00-.715-.297.77.77 0 00-.823 0c-.769.446-1.646 1.35-.648 2.065a1.086 1.086 0 001.106.107.652.652 0 01.216-.107c.526-.257 1.552-1.215.864-1.768z" fill="#AFC90C"/><path d="M144.705 140.471c.689-2.279.149-4.344-3.318-4.924a6.546 6.546 0 00-4.763 1.349 2.994 2.994 0 00-3.791-2.563 4.926 4.926 0 00-2.576 1.174 2.28 2.28 0 00-2.82-1.552 4.395 4.395 0 00-3.616 2.604 6.744 6.744 0 00-6.921.904 3.208 3.208 0 00-.877 1.457 5.503 5.503 0 00-4.802 3.413c-1.039 3.319 3.642 3.764 7.609 3.427-1.592 1.349-2.699 2.928-1.188 4.047 2.847 2.321 6.881 1.134 10.051-.796a3.042 3.042 0 001.565 2.118 3.645 3.645 0 002.051.581 13.852 13.852 0 00-1.187 2.927 3.124 3.124 0 00.88 3.056 3.134 3.134 0 003.099.708c4.345-1.349 6.517-5.005 7.866-8.729.067-.215.162-.458.256-.715 3.548-.108 8.499-1.659 8.985-4.721.594-3.967-3.143-4.453-6.503-3.765z" fill="#178137" opacity=".3"/><path opacity=".3" d="M305.452 182.631c-2.334-1.066-5.208-.094-7.744 1.7a7.608 7.608 0 00-.904-1.632c-1.673-2.038-5.734-1.269-7.69 0a9.677 9.677 0 00.216-2.699c-.202-2.401-3.224-2.941-5.181-1.78-3.264 1.929-5.517 7.339-5.275 11.723a7.574 7.574 0 00-5.949 4.803c-2.698.122-5.113 1.349-4.87 4.196.148 1.929 2.981 2.59 5.895 2.59a5.869 5.869 0 00-1.187 3.184 2.16 2.16 0 001.754 2.307c-2.375 2.442-3.521 5.828-.486 8.095a3.36 3.36 0 003.535.135 3.061 3.061 0 001.996 3.777c1.741.594 4.304-1.511 5.127-2.698a14.612 14.612 0 001.767-3.103 5.991 5.991 0 003.818-1.565 8.73 8.73 0 002.591-6.071c2.05 1.47 4.182 1.619 6.125-.944a6.192 6.192 0 00.998-5.397c2.928-.661 4.735-5.288 4.277-8.445 2.927-1.97 4.991-6.449 1.187-8.176z" fill="#AFC90C"/><path d="M159.425 72.679a4.587 4.587 0 00-1.579-2.563 7.603 7.603 0 00-1.349-1.08l1.471-.755c4.303-2.159 8.553-5.532 8.647-10.226.108-5.18-7.757-4.156-12.519-.864a6.235 6.235 0 00-1.903-2.698c-1.983-1.74-5.396-.162-7.393 1.106a6.935 6.935 0 00-4.722-6.394c-5.126-2.2-8.971 3.453-10.118 8.094-3.143-2.792-6.476-5.49-10.793-1.997a6.395 6.395 0 00-2.266 4.237 5.586 5.586 0 00-5.397-.446c-3.575 1.471-3.966 4.979-2.887 8.095a4.667 4.667 0 00-3.777 1.039c-1.808 1.592-1.768 3.386-.607 4.735a9.079 9.079 0 00-5.221 2.159 5.774 5.774 0 00-1.808 6.516c.836 1.713 2.954 2.32 5.396 2.334-1.349 2.833 1.7 4.479 4.668 4.87-4.047 2.793-9.363 7.312-6.516 11.333 1.74 2.482 6.098.944 8.945-.823.62 2.819 5.625 1.821 8.243.35a18.904 18.904 0 003.359-2.36c.809 2.36 2.55 3.777 5.815 2.455 3.264-1.322 4.897-5.612 6.246-8.351a35.79 35.79 0 001.835-4.21c1.605 2.119 4.182 4.44 6.745 3.441a6.494 6.494 0 004.048-4.52 5.987 5.987 0 007.312.419 6.627 6.627 0 002.239-2.213 14.142 14.142 0 003.805-1.187c2.86-1.35 5.153-3.94 4.276-6.961a5.504 5.504 0 00-4.195-3.535z" fill="#82BA28" opacity=".5"/></svg>