<svg width="824" height="221" viewBox="0 0 824 221" fill="none" xmlns="http://www.w3.org/2000/svg">
<g opacity="0.8" clip-path="url(#clip0_605_1014)">
<path d="M611.66 175.7C610.03 175.698 608.436 176.18 607.079 177.084C605.723 177.988 604.665 179.274 604.04 180.78C603.415 182.285 603.25 183.942 603.567 185.541C603.884 187.14 604.668 188.61 605.82 189.763C606.972 190.916 608.44 191.702 610.039 192.021C611.637 192.34 613.295 192.177 614.801 191.554C616.307 190.93 617.595 189.874 618.501 188.519C619.406 187.164 619.89 185.57 619.89 183.94C619.887 181.757 619.02 179.664 617.477 178.12C615.935 176.575 613.843 175.705 611.66 175.7ZM611.66 191.7C610.129 191.702 608.631 191.25 607.357 190.4C606.083 189.551 605.089 188.343 604.502 186.929C603.915 185.515 603.76 183.958 604.057 182.456C604.355 180.954 605.091 179.574 606.173 178.49C607.255 177.407 608.635 176.669 610.136 176.369C611.638 176.07 613.195 176.223 614.61 176.808C616.025 177.394 617.234 178.386 618.085 179.659C618.936 180.932 619.39 182.429 619.39 183.96C619.382 186.007 618.565 187.967 617.117 189.414C615.668 190.86 613.707 191.675 611.66 191.68V191.7Z" fill="white" fill-opacity="0.8"/>
<path d="M40.46 151C38.8303 151 37.2371 151.483 35.8821 152.389C34.527 153.294 33.4709 154.581 32.8472 156.087C32.2235 157.592 32.0604 159.249 32.3783 160.847C32.6963 162.446 33.481 163.914 34.6334 165.066C35.7858 166.219 37.254 167.004 38.8524 167.322C40.4508 167.64 42.1076 167.476 43.6133 166.853C45.119 166.229 46.4059 165.173 47.3113 163.818C48.2167 162.463 48.7 160.87 48.7 159.24C48.6973 157.055 47.8283 154.961 46.2836 153.416C44.7389 151.872 42.6446 151.003 40.46 151ZM40.46 167C38.9292 167 37.4327 166.546 36.1599 165.696C34.887 164.845 33.895 163.636 33.3092 162.222C32.7233 160.808 32.5701 159.251 32.8687 157.75C33.1674 156.249 33.9045 154.869 34.987 153.787C36.0694 152.704 37.4486 151.967 38.95 151.669C40.4514 151.37 42.0077 151.523 43.422 152.109C44.8363 152.695 46.0451 153.687 46.8956 154.96C47.746 156.233 48.2 157.729 48.2 159.26C48.1973 161.312 47.381 163.279 45.9301 164.73C44.4791 166.181 42.5119 166.997 40.46 167Z" fill="white" fill-opacity="0.8"/>
<path d="M296.27 97.0599C294.64 97.0599 293.047 97.5432 291.692 98.4486C290.337 99.3541 289.281 100.641 288.657 102.147C288.034 103.652 287.87 105.309 288.188 106.907C288.506 108.506 289.291 109.974 290.443 111.127C291.596 112.279 293.064 113.064 294.662 113.382C296.261 113.7 297.918 113.536 299.423 112.913C300.929 112.289 302.216 111.233 303.121 109.878C304.027 108.523 304.51 106.93 304.51 105.3C304.507 103.115 303.638 101.021 302.094 99.4763C300.549 97.9316 298.455 97.0626 296.27 97.0599ZM296.27 113.06C294.74 113.062 293.243 112.61 291.969 111.762C290.695 110.913 289.702 109.706 289.114 108.293C288.526 106.88 288.37 105.325 288.666 103.823C288.962 102.322 289.696 100.942 290.776 99.8576C291.856 98.7733 293.234 98.0336 294.734 97.7319C296.234 97.4301 297.791 97.58 299.206 98.1624C300.621 98.7449 301.832 99.7338 302.685 101.004C303.538 102.275 303.996 103.77 304 105.3C303.989 107.344 303.171 109.301 301.722 110.744C300.274 112.186 298.314 112.997 296.27 113V113.06Z" fill="white" fill-opacity="0.8"/>
<path d="M400 114.73C398.813 114.73 397.653 115.082 396.667 115.741C395.68 116.4 394.911 117.337 394.457 118.434C394.003 119.53 393.884 120.737 394.115 121.9C394.347 123.064 394.918 124.133 395.757 124.973C396.596 125.812 397.666 126.383 398.829 126.615C399.993 126.846 401.2 126.727 402.296 126.273C403.392 125.819 404.329 125.05 404.989 124.063C405.648 123.077 406 121.917 406 120.73C406 119.139 405.368 117.613 404.243 116.487C403.117 115.362 401.591 114.73 400 114.73ZM400 126.17C398.918 126.17 397.861 125.849 396.961 125.248C396.061 124.647 395.36 123.793 394.946 122.793C394.532 121.794 394.424 120.694 394.635 119.633C394.846 118.572 395.367 117.597 396.132 116.832C396.897 116.067 397.872 115.546 398.933 115.335C399.994 115.124 401.094 115.232 402.093 115.646C403.093 116.06 403.947 116.761 404.548 117.661C405.149 118.561 405.47 119.618 405.47 120.7C405.467 122.15 404.89 123.54 403.865 124.565C402.84 125.59 401.45 126.167 400 126.17Z" fill="white" fill-opacity="0.8"/>
<path d="M466.74 11.9399C467.927 11.9399 469.087 11.588 470.073 10.9288C471.06 10.2695 471.829 9.3324 472.283 8.23604C472.737 7.13969 472.856 5.93329 472.625 4.7694C472.393 3.60552 471.822 2.53642 470.983 1.6973C470.143 0.858188 469.074 0.286744 467.911 0.0552324C466.747 -0.176279 465.54 -0.0574589 464.444 0.396667C463.348 0.850793 462.41 1.61983 461.751 2.60652C461.092 3.59322 460.74 4.75326 460.74 5.93994C460.74 7.53124 461.372 9.05737 462.497 10.1826C463.623 11.3078 465.149 11.9399 466.74 11.9399ZM466.74 0.499944C467.821 0.49996 468.877 0.820028 469.776 1.41976C470.675 2.0195 471.376 2.87203 471.791 3.8698C472.206 4.86756 472.316 5.96585 472.107 7.0261C471.898 8.08635 471.38 9.06105 470.618 9.82723C469.856 10.5934 468.884 11.1167 467.825 11.3312C466.766 11.5456 465.667 11.4415 464.667 11.0321C463.667 10.6227 462.811 9.92628 462.206 9.0307C461.602 8.13511 461.276 7.08051 461.27 5.99994C461.266 5.27909 461.405 4.56457 461.678 3.89745C461.951 3.23033 462.353 2.62378 462.861 2.11266C463.37 1.60154 463.974 1.19594 464.64 0.919174C465.305 0.642407 466.019 0.499933 466.74 0.499944Z" fill="white" fill-opacity="0.8"/>
<path d="M132.89 14.5299C131.703 14.5299 130.543 14.8818 129.557 15.5411C128.57 16.2004 127.801 17.1375 127.347 18.2338C126.893 19.3302 126.774 20.5366 127.005 21.7005C127.237 22.8644 127.808 23.9335 128.647 24.7726C129.486 25.6117 130.556 26.1831 131.719 26.4147C132.883 26.6462 134.09 26.5273 135.186 26.0732C136.282 25.6191 137.22 24.8501 137.879 23.8634C138.538 22.8767 138.89 21.7166 138.89 20.5299C138.89 18.9386 138.258 17.4125 137.133 16.2873C136.007 15.1621 134.481 14.5299 132.89 14.5299ZM132.89 25.9699C131.808 25.9699 130.751 25.6491 129.851 25.0481C128.951 24.447 128.25 23.5927 127.836 22.5932C127.422 21.5937 127.314 20.4939 127.525 19.4328C127.736 18.3717 128.257 17.3971 129.022 16.6321C129.787 15.8671 130.762 15.3461 131.823 15.135C132.884 14.924 133.984 15.0323 134.983 15.4463C135.983 15.8603 136.837 16.5614 137.438 17.461C138.039 18.3605 138.36 19.4181 138.36 20.4999C138.363 21.2204 138.223 21.9344 137.95 22.6009C137.676 23.2674 137.274 23.8734 136.766 24.3843C136.257 24.8951 135.654 25.3008 134.989 25.578C134.324 25.8553 133.61 25.9986 132.89 25.9999V25.9699Z" fill="white" fill-opacity="0.8"/>
<path d="M148.91 166.36C147.723 166.36 146.563 166.712 145.577 167.371C144.59 168.03 143.821 168.967 143.367 170.064C142.913 171.16 142.794 172.367 143.025 173.53C143.257 174.694 143.828 175.763 144.667 176.603C145.506 177.442 146.576 178.013 147.739 178.245C148.903 178.476 150.11 178.357 151.206 177.903C152.302 177.449 153.24 176.68 153.899 175.693C154.558 174.707 154.91 173.547 154.91 172.36C154.91 170.769 154.278 169.243 153.153 168.117C152.027 166.992 150.501 166.36 148.91 166.36ZM148.91 177.8C147.828 177.8 146.771 177.479 145.871 176.878C144.971 176.277 144.27 175.423 143.856 174.423C143.442 173.424 143.334 172.324 143.545 171.263C143.756 170.202 144.277 169.227 145.042 168.462C145.807 167.697 146.782 167.176 147.843 166.965C148.904 166.754 150.004 166.862 151.003 167.276C152.003 167.69 152.857 168.391 153.458 169.291C154.059 170.191 154.38 171.248 154.38 172.33C154.377 173.78 153.8 175.17 152.775 176.195C151.75 177.22 150.36 177.797 148.91 177.8Z" fill="white" fill-opacity="0.8"/>
<path d="M58.93 71.9999C57.2998 71.9999 55.7063 72.4835 54.351 73.3893C52.9958 74.2952 51.9396 75.5827 51.3163 77.089C50.6929 78.5952 50.5303 80.2525 50.849 81.8512C51.1678 83.4499 51.9536 84.9181 53.107 86.07C54.2603 87.222 55.7295 88.006 57.3286 88.3228C58.9276 88.6396 60.5847 88.475 62.0902 87.8498C63.5957 87.2246 64.8819 86.1669 65.7862 84.8106C66.6904 83.4542 67.172 81.8601 67.17 80.2299C67.1673 78.0463 66.298 75.953 64.753 74.4099C63.208 72.8667 61.1136 71.9999 58.93 71.9999ZM58.93 87.9999C57.3992 87.9999 55.9027 87.546 54.6299 86.6955C53.357 85.845 52.365 84.6362 51.7792 83.2219C51.1933 81.8076 51.0401 80.2514 51.3387 78.7499C51.6374 77.2485 52.3745 75.8694 53.457 74.7869C54.5394 73.7045 55.9186 72.9673 57.42 72.6687C58.9214 72.37 60.4777 72.5233 61.892 73.1091C63.3063 73.6949 64.5151 74.687 65.3656 75.9598C66.216 77.2327 66.67 78.7291 66.67 80.2599C66.6673 82.3119 65.851 84.2791 64.4001 85.73C62.9491 87.181 60.9819 87.9973 58.93 87.9999Z" fill="white" fill-opacity="0.8"/>
<path d="M643.33 63.9999C641.7 63.9999 640.107 64.4832 638.752 65.3886C637.397 66.2941 636.341 67.581 635.717 69.0866C635.094 70.5923 634.93 72.2491 635.248 73.8475C635.566 75.4459 636.351 76.9141 637.503 78.0665C638.656 79.2189 640.124 80.0037 641.722 80.3216C643.321 80.6396 644.978 80.4764 646.483 79.8527C647.989 79.229 649.276 78.1729 650.181 76.8178C651.087 75.4628 651.57 73.8697 651.57 72.2399C651.567 70.0554 650.698 67.961 649.154 66.4163C647.609 64.8716 645.515 64.0026 643.33 63.9999ZM643.33 79.9999C641.799 79.9999 640.302 79.5457 639.029 78.6948C637.756 77.8439 636.764 76.6345 636.178 75.2196C635.593 73.8047 635.44 72.248 635.739 70.7463C636.039 69.2446 636.777 67.8655 637.861 66.7834C638.944 65.7013 640.324 64.965 641.826 64.6674C643.328 64.3699 644.885 64.5246 646.299 65.112C647.713 65.6993 648.921 66.693 649.77 67.9671C650.62 69.2413 651.072 70.7387 651.07 72.2699C651.067 74.321 650.251 76.2871 648.799 77.7365C647.348 79.1859 645.381 79.9999 643.33 79.9999Z" fill="white" fill-opacity="0.8"/>
<path d="M476.94 170C475.31 170 473.716 170.483 472.361 171.389C471.006 172.295 469.95 173.583 469.326 175.089C468.703 176.595 468.54 178.252 468.859 179.851C469.178 181.45 469.964 182.918 471.117 184.07C472.27 185.222 473.74 186.006 475.339 186.323C476.938 186.64 478.595 186.475 480.1 185.85C481.606 185.225 482.892 184.167 483.796 182.811C484.7 181.454 485.182 179.86 485.18 178.23C485.177 176.046 484.308 173.953 482.763 172.41C481.218 170.867 479.124 170 476.94 170ZM476.94 186C475.409 186 473.913 185.546 472.64 184.696C471.367 183.845 470.375 182.636 469.789 181.222C469.203 179.808 469.05 178.251 469.349 176.75C469.647 175.249 470.384 173.869 471.467 172.787C472.549 171.704 473.929 170.967 475.43 170.669C476.931 170.37 478.488 170.523 479.902 171.109C481.316 171.695 482.525 172.687 483.376 173.96C484.226 175.233 484.68 176.729 484.68 178.26C484.661 180.301 483.838 182.251 482.388 183.688C480.939 185.124 478.981 185.93 476.94 185.93V186Z" fill="white" fill-opacity="0.8"/>
<path d="M728.94 183.43C728.133 183.43 727.344 183.669 726.673 184.118C726.002 184.566 725.479 185.203 725.171 185.949C724.862 186.694 724.781 187.514 724.938 188.306C725.096 189.097 725.484 189.824 726.055 190.395C726.626 190.966 727.353 191.354 728.144 191.512C728.935 191.669 729.756 191.588 730.501 191.279C731.247 190.971 731.884 190.448 732.332 189.777C732.781 189.106 733.02 188.317 733.02 187.51C733.02 186.974 732.914 186.444 732.709 185.949C732.504 185.454 732.204 185.004 731.825 184.625C731.446 184.246 730.996 183.946 730.501 183.741C730.006 183.535 729.476 183.43 728.94 183.43ZM728.94 191.08C728.232 191.08 727.539 190.87 726.95 190.476C726.361 190.082 725.902 189.522 725.632 188.868C725.361 188.213 725.291 187.493 725.43 186.798C725.569 186.103 725.91 185.465 726.412 184.965C726.914 184.465 727.553 184.125 728.248 183.988C728.943 183.851 729.663 183.923 730.317 184.195C730.971 184.468 731.529 184.928 731.922 185.518C732.314 186.108 732.522 186.801 732.52 187.51C732.52 187.98 732.427 188.445 732.247 188.878C732.067 189.312 731.803 189.706 731.471 190.038C731.138 190.369 730.744 190.632 730.309 190.811C729.875 190.99 729.41 191.081 728.94 191.08Z" fill="white" fill-opacity="0.8"/>
<path d="M729.93 120.26C729.493 120.26 729.066 120.39 728.702 120.632C728.339 120.875 728.056 121.22 727.888 121.624C727.721 122.028 727.677 122.472 727.762 122.901C727.848 123.33 728.058 123.724 728.367 124.033C728.676 124.342 729.07 124.552 729.499 124.637C729.928 124.723 730.372 124.679 730.776 124.512C731.18 124.344 731.525 124.061 731.768 123.698C732.01 123.334 732.14 122.907 732.14 122.47C732.14 121.884 731.907 121.322 731.493 120.907C731.078 120.493 730.516 120.26 729.93 120.26ZM729.93 124.18C729.592 124.18 729.261 124.08 728.98 123.892C728.699 123.704 728.48 123.437 728.35 123.124C728.221 122.812 728.187 122.468 728.253 122.136C728.319 121.805 728.482 121.5 728.721 121.261C728.96 121.022 729.265 120.859 729.596 120.793C729.928 120.727 730.272 120.761 730.584 120.89C730.897 121.02 731.164 121.239 731.352 121.52C731.54 121.801 731.64 122.132 731.64 122.47C731.64 122.695 731.596 122.917 731.51 123.124C731.424 123.332 731.298 123.52 731.139 123.679C730.98 123.838 730.792 123.964 730.584 124.05C730.377 124.136 730.155 124.18 729.93 124.18Z" fill="white" fill-opacity="0.8"/>
<path d="M821.65 176.47C821.213 176.47 820.786 176.6 820.422 176.842C820.059 177.085 819.776 177.43 819.608 177.834C819.441 178.238 819.397 178.682 819.482 179.111C819.568 179.54 819.778 179.934 820.087 180.243C820.396 180.552 820.79 180.762 821.219 180.847C821.648 180.933 822.092 180.889 822.496 180.722C822.9 180.554 823.245 180.271 823.488 179.908C823.73 179.544 823.86 179.117 823.86 178.68C823.86 178.094 823.627 177.532 823.213 177.117C822.798 176.703 822.236 176.47 821.65 176.47ZM821.65 180.38C821.311 180.38 820.98 180.279 820.699 180.091C820.417 179.903 820.198 179.635 820.069 179.322C819.94 179.009 819.907 178.665 819.974 178.333C820.04 178.001 820.204 177.696 820.444 177.457C820.685 177.219 820.99 177.056 821.323 176.992C821.655 176.927 821.999 176.962 822.311 177.093C822.624 177.224 822.89 177.445 823.077 177.727C823.263 178.01 823.362 178.341 823.36 178.68C823.357 179.132 823.176 179.564 822.856 179.883C822.535 180.201 822.102 180.38 821.65 180.38Z" fill="white" fill-opacity="0.8"/>
<path d="M677.68 77.9999C677.242 78 676.815 78.1298 676.451 78.3731C676.088 78.6164 675.804 78.9621 675.637 79.3665C675.47 79.771 675.427 80.2158 675.513 80.6448C675.599 81.0738 675.811 81.4675 676.121 81.7762C676.431 82.0849 676.826 82.2946 677.255 82.3787C677.684 82.4628 678.129 82.4176 678.533 82.2488C678.936 82.08 679.281 81.7952 679.522 81.4305C679.764 81.0657 679.892 80.6375 679.89 80.1999C679.887 79.6155 679.653 79.056 679.239 78.6437C678.825 78.2314 678.264 77.9999 677.68 77.9999ZM677.68 81.91C677.342 81.91 677.011 81.8097 676.73 81.6218C676.449 81.4339 676.23 81.1668 676.1 80.8543C675.971 80.5419 675.937 80.1981 676.003 79.8663C676.069 79.5346 676.232 79.2299 676.471 78.9908C676.71 78.7516 677.015 78.5888 677.346 78.5228C677.678 78.4568 678.022 78.4907 678.334 78.6201C678.647 78.7495 678.914 78.9687 679.102 79.2499C679.29 79.5311 679.39 79.8617 679.39 80.1999C679.394 80.427 679.353 80.6526 679.269 80.8635C679.184 81.0745 679.059 81.2666 678.9 81.4285C678.741 81.5905 678.551 81.7192 678.341 81.807C678.132 81.8948 677.907 81.94 677.68 81.9399V81.91Z" fill="white" fill-opacity="0.8"/>
<path d="M454.86 126.84C455.297 126.84 455.725 126.71 456.089 126.467C456.452 126.224 456.736 125.878 456.903 125.473C457.07 125.069 457.113 124.624 457.027 124.195C456.941 123.766 456.729 123.372 456.419 123.064C456.109 122.755 455.714 122.545 455.285 122.461C454.856 122.377 454.411 122.422 454.007 122.591C453.604 122.76 453.259 123.045 453.018 123.409C452.776 123.774 452.648 124.202 452.65 124.64C452.653 125.224 452.887 125.784 453.301 126.196C453.715 126.608 454.276 126.84 454.86 126.84ZM454.86 122.93C455.198 122.93 455.529 123.03 455.81 123.218C456.091 123.406 456.31 123.673 456.44 123.986C456.569 124.298 456.603 124.642 456.537 124.974C456.471 125.305 456.308 125.61 456.069 125.849C455.83 126.088 455.525 126.251 455.194 126.317C454.862 126.383 454.518 126.349 454.206 126.22C453.893 126.09 453.626 125.871 453.438 125.59C453.25 125.309 453.15 124.978 453.15 124.64C453.15 124.186 453.33 123.751 453.651 123.431C453.971 123.11 454.406 122.93 454.86 122.93Z" fill="white" fill-opacity="0.8"/>
<path d="M299.19 155.58C299.857 155.58 300.508 155.382 301.062 155.012C301.616 154.642 302.048 154.115 302.303 153.5C302.559 152.884 302.625 152.206 302.495 151.552C302.365 150.899 302.044 150.298 301.573 149.827C301.102 149.356 300.501 149.035 299.847 148.905C299.194 148.775 298.516 148.841 297.9 149.096C297.285 149.352 296.758 149.783 296.388 150.338C296.018 150.892 295.82 151.543 295.82 152.21C295.823 153.103 296.178 153.959 296.81 154.59C297.441 155.221 298.297 155.577 299.19 155.58ZM299.19 149.34C299.758 149.34 300.312 149.508 300.784 149.824C301.256 150.139 301.624 150.587 301.841 151.112C302.059 151.636 302.116 152.213 302.005 152.77C301.894 153.327 301.621 153.838 301.219 154.239C300.818 154.641 300.307 154.914 299.75 155.025C299.193 155.136 298.616 155.079 298.092 154.861C297.567 154.644 297.119 154.276 296.804 153.804C296.488 153.332 296.32 152.778 296.32 152.21C296.32 151.449 296.622 150.719 297.161 150.181C297.699 149.642 298.429 149.34 299.19 149.34Z" fill="white" fill-opacity="0.8"/>
<path d="M64.5 44.1499C65.1665 44.1499 65.8181 43.9523 66.3723 43.582C66.9264 43.2117 67.3584 42.6854 67.6135 42.0696C67.8685 41.4538 67.9353 40.7762 67.8052 40.1225C67.6752 39.4688 67.3542 38.8683 66.8829 38.397C66.4116 37.9257 65.8112 37.6047 65.1574 37.4747C64.5037 37.3447 63.8261 37.4114 63.2103 37.6665C62.5946 37.9215 62.0682 38.3535 61.6979 38.9077C61.3276 39.4619 61.13 40.1134 61.13 40.7799C61.1326 41.6729 61.4885 42.5285 62.1199 43.16C62.7514 43.7914 63.607 44.1473 64.5 44.1499ZM64.5 37.9099C65.0676 37.9099 65.6225 38.0783 66.0945 38.3936C66.5664 38.709 66.9343 39.1572 67.1515 39.6816C67.3687 40.2061 67.4256 40.7831 67.3148 41.3399C67.2041 41.8966 66.9308 42.408 66.5294 42.8093C66.128 43.2107 65.6166 43.4841 65.0599 43.5948C64.5032 43.7055 63.9261 43.6487 63.4017 43.4315C62.8773 43.2143 62.429 42.8464 62.1137 42.3744C61.7983 41.9025 61.63 41.3476 61.63 40.7799C61.63 40.0188 61.9324 39.2888 62.4706 38.7505C63.0088 38.2123 63.7388 37.9099 64.5 37.9099Z" fill="white" fill-opacity="0.8"/>
<path d="M17.4 95.9399C17.4 95.5029 17.2704 95.0756 17.0275 94.7121C16.7847 94.3487 16.4395 94.0654 16.0357 93.8982C15.6319 93.7309 15.1875 93.6871 14.7588 93.7724C14.3301 93.8577 13.9363 94.0682 13.6273 94.3772C13.3182 94.6863 13.1077 95.0801 13.0224 95.5088C12.9372 95.9375 12.9809 96.3819 13.1482 96.7857C13.3155 97.1895 13.5987 97.5347 13.9622 97.7775C14.3256 98.0203 14.7529 98.1499 15.19 98.1499C15.7761 98.1499 16.3382 97.9171 16.7527 97.5027C17.1671 97.0882 17.4 96.5261 17.4 95.9399ZM13.49 95.9399C13.49 95.6013 13.5905 95.2703 13.7789 94.9889C13.9672 94.7075 14.2349 94.4883 14.5479 94.3592C14.861 94.23 15.2053 94.1968 15.5373 94.2636C15.8693 94.3304 16.1739 94.4942 16.4127 94.7344C16.6514 94.9745 16.8135 95.2801 16.8783 95.6125C16.9432 95.9449 16.9079 96.289 16.7769 96.6013C16.646 96.9136 16.4252 97.1799 16.1427 97.3666C15.8602 97.5533 15.5286 97.6519 15.19 97.6499C14.7382 97.6473 14.3058 97.466 13.9873 97.1456C13.6688 96.8252 13.49 96.3917 13.49 95.9399Z" fill="white" fill-opacity="0.8"/>
<path d="M255 154.6C254.563 154.6 254.136 154.73 253.772 154.972C253.409 155.215 253.125 155.56 252.958 155.964C252.791 156.368 252.747 156.812 252.832 157.241C252.918 157.67 253.128 158.064 253.437 158.373C253.746 158.682 254.14 158.892 254.569 158.977C254.998 159.063 255.442 159.019 255.846 158.852C256.25 158.684 256.595 158.401 256.838 158.038C257.08 157.674 257.21 157.247 257.21 156.81C257.21 156.52 257.153 156.232 257.042 155.964C256.931 155.696 256.768 155.452 256.563 155.247C256.357 155.042 256.114 154.879 255.846 154.768C255.578 154.657 255.29 154.6 255 154.6ZM255 158.52C254.662 158.52 254.331 158.42 254.05 158.232C253.769 158.044 253.55 157.777 253.42 157.464C253.291 157.152 253.257 156.808 253.323 156.476C253.389 156.145 253.552 155.84 253.791 155.601C254.03 155.362 254.335 155.199 254.666 155.133C254.998 155.067 255.342 155.101 255.654 155.23C255.967 155.36 256.234 155.579 256.422 155.86C256.61 156.141 256.71 156.472 256.71 156.81C256.707 157.263 256.526 157.696 256.206 158.016C255.886 158.336 255.453 158.517 255 158.52Z" fill="white" fill-opacity="0.8"/>
<path d="M205 39.8599C205.438 39.8599 205.865 39.7301 206.229 39.4868C206.592 39.2435 206.876 38.8978 207.043 38.4933C207.21 38.0889 207.253 37.6441 207.167 37.2151C207.081 36.7861 206.869 36.3924 206.559 36.0837C206.249 35.775 205.854 35.5653 205.425 35.4812C204.996 35.3971 204.551 35.4422 204.147 35.6111C203.744 35.7799 203.399 36.0647 203.158 36.4294C202.916 36.7942 202.788 37.2224 202.79 37.6599C202.793 38.2443 203.027 38.8039 203.441 39.2162C203.855 39.6285 204.416 39.86 205 39.8599ZM205 35.9999C205.338 35.9999 205.669 36.1002 205.95 36.2881C206.231 36.476 206.45 36.7431 206.58 37.0556C206.709 37.368 206.743 37.7118 206.677 38.0435C206.611 38.3753 206.448 38.6799 206.209 38.9191C205.97 39.1582 205.665 39.3211 205.334 39.3871C205.002 39.4531 204.658 39.4192 204.346 39.2898C204.033 39.1604 203.766 38.9412 203.578 38.66C203.39 38.3788 203.29 38.0481 203.29 37.7099C203.29 37.2564 203.47 36.8215 203.791 36.5008C204.112 36.1801 204.546 35.9999 205 35.9999Z" fill="white" fill-opacity="0.8"/>
<path d="M145.32 28.9999C144.882 28.9999 144.455 29.1298 144.091 29.3731C143.727 29.6164 143.444 29.9621 143.277 30.3665C143.11 30.7709 143.067 31.2158 143.153 31.6448C143.239 32.0738 143.451 32.4675 143.761 32.7762C144.071 33.0849 144.466 33.2945 144.895 33.3787C145.324 33.4628 145.769 33.4176 146.173 33.2488C146.576 33.08 146.921 32.7952 147.162 32.4305C147.404 32.0657 147.532 31.6375 147.53 31.1999C147.527 30.6156 147.293 30.056 146.879 29.6437C146.465 29.2314 145.904 28.9999 145.32 28.9999ZM145.32 32.9099C144.979 32.9158 144.644 32.8196 144.358 32.6335C144.072 32.4474 143.848 32.1801 143.715 31.8659C143.583 31.5516 143.547 31.2048 143.613 30.8701C143.678 30.5353 143.843 30.228 144.085 29.9874C144.327 29.7469 144.635 29.5843 144.97 29.5204C145.305 29.4566 145.652 29.4944 145.966 29.6291C146.279 29.7638 146.545 29.9891 146.729 30.2762C146.914 30.5632 147.008 30.8989 147 31.2399C147.007 31.4662 146.968 31.6915 146.887 31.9028C146.806 32.1141 146.684 32.3072 146.528 32.4709C146.371 32.6346 146.184 32.7657 145.977 32.8565C145.77 32.9473 145.546 32.9961 145.32 32.9999V32.9099Z" fill="white" fill-opacity="0.8"/>
<path d="M388.43 48.0599C388.867 48.0599 389.294 47.9303 389.658 47.6875C390.021 47.4447 390.304 47.0995 390.472 46.6957C390.639 46.2919 390.683 45.8475 390.598 45.4188C390.512 44.9901 390.302 44.5963 389.993 44.2872C389.684 43.9782 389.29 43.7677 388.861 43.6824C388.432 43.5971 387.988 43.6409 387.584 43.8082C387.18 43.9754 386.835 44.2587 386.592 44.6221C386.35 44.9856 386.22 45.4128 386.22 45.8499C386.22 46.4361 386.453 46.9982 386.867 47.4126C387.282 47.8271 387.844 48.0599 388.43 48.0599ZM388.43 44.1499C388.769 44.15 389.1 44.2505 389.381 44.4388C389.662 44.6272 389.882 44.8948 390.011 45.2079C390.14 45.5209 390.173 45.8653 390.106 46.1972C390.04 46.5292 389.876 46.8339 389.636 47.0726C389.395 47.3114 389.09 47.4734 388.757 47.5383C388.425 47.6031 388.081 47.5679 387.769 47.4369C387.456 47.3059 387.19 47.0852 387.003 46.8027C386.817 46.5202 386.718 46.1886 386.72 45.8499C386.72 45.6259 386.764 45.404 386.85 45.1971C386.936 44.9902 387.062 44.8023 387.221 44.6443C387.38 44.4863 387.569 44.3613 387.776 44.2765C387.984 44.1916 388.206 44.1486 388.43 44.1499Z" fill="white" fill-opacity="0.8"/>
<path d="M408.09 58.2299C407.652 58.2299 407.225 58.3598 406.861 58.6031C406.497 58.8464 406.214 59.1921 406.047 59.5965C405.88 60.0009 405.837 60.4458 405.923 60.8748C406.009 61.3038 406.221 61.6975 406.531 62.0062C406.841 62.3149 407.236 62.5246 407.665 62.6087C408.094 62.6928 408.539 62.6476 408.943 62.4788C409.346 62.31 409.691 62.0252 409.932 61.6605C410.174 61.2957 410.302 60.8675 410.3 60.4299C410.297 59.8456 410.063 59.286 409.649 58.8737C409.235 58.4614 408.674 58.2299 408.09 58.2299ZM408.09 62.1399C407.752 62.1399 407.421 62.0397 407.14 61.8518C406.859 61.6639 406.64 61.3968 406.51 61.0843C406.381 60.7719 406.347 60.428 406.413 60.0963C406.479 59.7646 406.642 59.4599 406.881 59.2208C407.12 58.9816 407.425 58.8188 407.756 58.7528C408.088 58.6868 408.432 58.7207 408.744 58.8501C409.057 58.9795 409.324 59.1987 409.512 59.4799C409.7 59.7611 409.8 60.0917 409.8 60.4299C409.8 60.8835 409.62 61.3184 409.299 61.6391C408.978 61.9598 408.543 62.1399 408.09 62.1399Z" fill="white" fill-opacity="0.8"/>
<path d="M597.18 79.9999C596.743 79.9999 596.316 80.1296 595.952 80.3724C595.589 80.6152 595.306 80.9604 595.138 81.3642C594.971 81.768 594.927 82.2124 595.012 82.6411C595.098 83.0698 595.308 83.4636 595.617 83.7727C595.926 84.0817 596.32 84.2922 596.749 84.3775C597.178 84.4628 597.622 84.419 598.026 84.2517C598.43 84.0844 598.775 83.8012 599.018 83.4378C599.26 83.0743 599.39 82.647 599.39 82.2099C599.39 81.6238 599.157 81.0617 598.743 80.6472C598.328 80.2328 597.766 79.9999 597.18 79.9999ZM597.18 83.9199C596.842 83.9199 596.511 83.8197 596.23 83.6318C595.949 83.4439 595.73 83.1768 595.6 82.8643C595.471 82.5519 595.437 82.2081 595.503 81.8763C595.569 81.5446 595.732 81.2399 595.971 81.0008C596.21 80.7616 596.515 80.5988 596.846 80.5328C597.178 80.4668 597.522 80.5007 597.834 80.6301C598.147 80.7595 598.414 80.9787 598.602 81.2599C598.79 81.5411 598.89 81.8717 598.89 82.2099C598.882 82.6592 598.699 83.0875 598.379 83.4033C598.06 83.7192 597.629 83.8974 597.18 83.8999V83.9199Z" fill="white" fill-opacity="0.8"/>
<path d="M194.78 76.0499C194.78 75.6129 194.65 75.1856 194.408 74.8221C194.165 74.4587 193.82 74.1754 193.416 74.0082C193.012 73.8409 192.568 73.7971 192.139 73.8824C191.71 73.9677 191.316 74.1782 191.007 74.4872C190.698 74.7963 190.488 75.1901 190.402 75.6188C190.317 76.0475 190.361 76.4919 190.528 76.8957C190.695 77.2995 190.979 77.6447 191.342 77.8875C191.706 78.1303 192.133 78.2599 192.57 78.2599C193.155 78.2573 193.716 78.0236 194.13 77.6097C194.544 77.1959 194.777 76.6353 194.78 76.0499ZM190.86 76.0499C190.86 75.7117 190.96 75.3811 191.148 75.0999C191.336 74.8187 191.603 74.5995 191.916 74.4701C192.228 74.3407 192.572 74.3068 192.904 74.3728C193.235 74.4388 193.54 74.6016 193.779 74.8408C194.018 75.0799 194.181 75.3846 194.247 75.7163C194.313 76.048 194.279 76.3919 194.15 76.7043C194.02 77.0168 193.801 77.2839 193.52 77.4718C193.239 77.6597 192.908 77.7599 192.57 77.7599C192.117 77.7573 191.684 77.5763 191.364 77.2562C191.044 76.9361 190.863 76.5027 190.86 76.0499Z" fill="white" fill-opacity="0.8"/>
<path d="M388.51 144.13C388.948 144.132 389.377 144.004 389.742 143.762C390.106 143.52 390.391 143.175 390.56 142.77C390.728 142.366 390.773 141.921 390.688 141.491C390.603 141.062 390.392 140.667 390.083 140.357C389.773 140.048 389.378 139.837 388.949 139.752C388.519 139.667 388.074 139.712 387.67 139.88C387.265 140.049 386.92 140.333 386.678 140.698C386.436 141.063 386.308 141.492 386.31 141.93C386.313 142.513 386.545 143.071 386.957 143.483C387.369 143.895 387.927 144.127 388.51 144.13ZM388.51 140.22C388.849 140.218 389.18 140.317 389.463 140.503C389.745 140.69 389.966 140.956 390.097 141.269C390.228 141.581 390.263 141.925 390.198 142.257C390.133 142.59 389.971 142.895 389.733 143.136C389.494 143.376 389.189 143.54 388.857 143.606C388.525 143.673 388.181 143.64 387.868 143.511C387.555 143.382 387.287 143.162 387.099 142.881C386.911 142.6 386.81 142.269 386.81 141.93C386.809 141.706 386.852 141.484 386.936 141.276C387.021 141.069 387.146 140.88 387.304 140.721C387.462 140.562 387.65 140.436 387.857 140.35C388.064 140.264 388.286 140.22 388.51 140.22Z" fill="white" fill-opacity="0.8"/>
<path d="M691.11 20.7499C691.547 20.7499 691.974 20.6203 692.338 20.3775C692.701 20.1347 692.984 19.7895 693.152 19.3857C693.319 18.9819 693.363 18.5375 693.278 18.1088C693.192 17.6801 692.982 17.2863 692.673 16.9772C692.364 16.6682 691.97 16.4577 691.541 16.3724C691.112 16.2871 690.668 16.3309 690.264 16.4982C689.86 16.6654 689.515 16.9487 689.272 17.3121C689.03 17.6756 688.9 18.1028 688.9 18.5399C688.9 19.1261 689.133 19.6882 689.547 20.1027C689.962 20.5171 690.524 20.7499 691.11 20.7499ZM691.11 16.8299C691.448 16.8299 691.779 16.9302 692.06 17.1181C692.341 17.306 692.56 17.5731 692.69 17.8856C692.819 18.198 692.853 18.5418 692.787 18.8735C692.721 19.2053 692.558 19.51 692.319 19.7491C692.08 19.9882 691.775 20.1511 691.444 20.2171C691.112 20.2831 690.768 20.2492 690.456 20.1198C690.143 19.9904 689.876 19.7712 689.688 19.49C689.5 19.2088 689.4 18.8782 689.4 18.5399C689.4 18.0864 689.58 17.6515 689.901 17.3308C690.221 17.0101 690.656 16.8299 691.11 16.8299Z" fill="white" fill-opacity="0.8"/>
<path d="M162.91 188.84C162.473 188.84 162.046 188.97 161.682 189.212C161.319 189.455 161.035 189.8 160.868 190.204C160.701 190.608 160.657 191.052 160.742 191.481C160.828 191.91 161.038 192.304 161.347 192.613C161.656 192.922 162.05 193.132 162.479 193.217C162.908 193.303 163.352 193.259 163.756 193.092C164.16 192.924 164.505 192.641 164.748 192.278C164.99 191.914 165.12 191.487 165.12 191.05C165.12 190.464 164.887 189.902 164.473 189.487C164.058 189.073 163.496 188.84 162.91 188.84ZM162.91 192.75C162.571 192.75 162.24 192.649 161.959 192.461C161.678 192.273 161.458 192.005 161.329 191.692C161.2 191.379 161.167 191.035 161.234 190.703C161.3 190.371 161.464 190.066 161.704 189.827C161.945 189.589 162.25 189.426 162.583 189.362C162.915 189.297 163.259 189.332 163.571 189.463C163.884 189.594 164.15 189.815 164.337 190.097C164.523 190.38 164.622 190.711 164.62 191.05C164.617 191.502 164.436 191.934 164.116 192.253C163.795 192.571 163.362 192.75 162.91 192.75Z" fill="white" fill-opacity="0.8"/>
<path d="M597.37 202.17C596.644 202.168 595.933 202.382 595.328 202.784C594.724 203.186 594.252 203.758 593.972 204.429C593.693 205.099 593.619 205.837 593.759 206.55C593.9 207.262 594.248 207.917 594.761 208.431C595.274 208.946 595.928 209.296 596.64 209.439C597.352 209.581 598.091 209.509 598.762 209.232C599.433 208.954 600.007 208.484 600.411 207.88C600.814 207.276 601.03 206.566 601.03 205.84C601.03 204.868 600.645 203.936 599.959 203.248C599.273 202.56 598.342 202.173 597.37 202.17ZM597.37 209C596.742 209.002 596.128 208.817 595.605 208.47C595.082 208.122 594.674 207.627 594.433 207.048C594.192 206.468 594.128 205.83 594.25 205.214C594.372 204.598 594.675 204.032 595.118 203.588C595.562 203.144 596.128 202.842 596.744 202.72C597.36 202.598 597.998 202.662 598.578 202.903C599.157 203.144 599.652 203.552 600 204.075C600.347 204.598 600.532 205.212 600.53 205.84C600.527 206.677 600.194 207.479 599.602 208.071C599.01 208.664 598.207 208.997 597.37 209Z" fill="white" fill-opacity="0.8"/>
<path d="M270.63 170C269.904 169.998 269.193 170.212 268.588 170.614C267.983 171.016 267.512 171.588 267.232 172.259C266.953 172.929 266.879 173.667 267.019 174.38C267.16 175.092 267.509 175.747 268.021 176.261C268.534 176.776 269.188 177.126 269.9 177.269C270.612 177.411 271.351 177.339 272.022 177.062C272.693 176.784 273.267 176.314 273.671 175.71C274.074 175.106 274.29 174.396 274.29 173.67C274.287 172.699 273.901 171.769 273.216 171.081C272.53 170.394 271.601 170.005 270.63 170ZM270.63 176.83C270.005 176.83 269.394 176.645 268.874 176.297C268.355 175.95 267.95 175.457 267.711 174.879C267.471 174.302 267.409 173.666 267.531 173.053C267.653 172.44 267.954 171.877 268.396 171.435C268.837 170.994 269.401 170.693 270.013 170.571C270.626 170.449 271.262 170.511 271.839 170.75C272.417 170.99 272.91 171.395 273.257 171.914C273.605 172.434 273.79 173.045 273.79 173.67C273.79 174.085 273.708 174.496 273.549 174.879C273.391 175.263 273.158 175.611 272.864 175.904C272.571 176.198 272.223 176.431 271.839 176.589C271.456 176.748 271.045 176.83 270.63 176.83Z" fill="white" fill-opacity="0.8"/>
<path d="M3.65998 110.24C2.9337 110.238 2.22316 110.452 1.61832 110.854C1.01348 111.256 0.54153 111.828 0.262223 112.499C-0.0170848 113.169 -0.0911913 113.907 0.0492851 114.62C0.189762 115.332 0.538504 115.987 1.05136 116.501C1.56422 117.016 2.21813 117.366 2.93031 117.509C3.6425 117.651 4.38092 117.579 5.05211 117.302C5.7233 117.024 6.29707 116.554 6.70077 115.95C7.10448 115.346 7.31998 114.636 7.31998 113.91C7.31999 112.938 6.9347 112.006 6.2486 111.318C5.56251 110.63 4.63159 110.243 3.65998 110.24ZM3.65998 117.07C3.03499 117.07 2.42404 116.885 1.90438 116.537C1.38472 116.19 0.979696 115.697 0.740523 115.119C0.50135 114.542 0.438771 113.906 0.560701 113.293C0.68263 112.68 0.983591 112.117 1.42552 111.675C1.86746 111.234 2.43052 110.933 3.0435 110.811C3.65648 110.689 4.29185 110.751 4.86926 110.99C5.44668 111.23 5.9402 111.635 6.28743 112.154C6.63465 112.674 6.81998 113.285 6.81998 113.91C6.81735 114.747 6.48357 115.549 5.89153 116.141C5.29948 116.734 4.49726 117.067 3.65998 117.07Z" fill="white" fill-opacity="0.8"/>
<path d="M740.15 134.83C739.343 134.83 738.553 135.069 737.882 135.518C737.211 135.967 736.688 136.605 736.38 137.351C736.071 138.097 735.991 138.918 736.149 139.71C736.307 140.501 736.697 141.228 737.269 141.798C737.84 142.369 738.568 142.756 739.36 142.913C740.152 143.069 740.973 142.987 741.718 142.676C742.464 142.366 743.1 141.842 743.547 141.169C743.994 140.497 744.232 139.707 744.23 138.9C744.227 137.82 743.796 136.784 743.031 136.021C742.267 135.258 741.23 134.83 740.15 134.83ZM740.15 142.48C739.442 142.48 738.75 142.27 738.161 141.877C737.572 141.483 737.113 140.924 736.843 140.27C736.572 139.616 736.501 138.896 736.639 138.202C736.777 137.507 737.118 136.869 737.619 136.368C738.119 135.868 738.757 135.527 739.452 135.389C740.146 135.251 740.866 135.321 741.52 135.592C742.174 135.863 742.733 136.322 743.127 136.911C743.52 137.5 743.73 138.192 743.73 138.9C743.73 139.849 743.353 140.76 742.681 141.431C742.01 142.103 741.099 142.48 740.15 142.48Z" fill="white" fill-opacity="0.8"/>
<path d="M780.51 75.7999C779.703 75.7999 778.913 76.0395 778.242 76.4883C777.571 76.937 777.048 77.5748 776.74 78.3209C776.431 79.067 776.351 79.8879 776.509 80.6796C776.667 81.4713 777.057 82.1983 777.629 82.7685C778.2 83.3387 778.928 83.7265 779.72 83.8828C780.512 84.0391 781.333 83.9568 782.078 83.6465C782.824 83.3362 783.46 82.8117 783.907 82.1394C784.354 81.4671 784.592 80.6773 784.59 79.8699C784.587 78.7896 784.156 77.7544 783.391 76.9914C782.627 76.2284 781.59 75.7999 780.51 75.7999ZM780.51 83.4499C779.802 83.4519 779.108 83.2437 778.518 82.8515C777.928 82.4593 777.468 81.9009 777.195 81.2469C776.923 80.5929 776.851 79.8728 776.988 79.1777C777.125 78.4826 777.465 77.8437 777.965 77.3421C778.465 76.8404 779.103 76.4984 779.798 76.3595C780.493 76.2205 781.213 76.2908 781.868 76.5615C782.522 76.8322 783.082 77.291 783.476 77.88C783.87 78.4689 784.08 79.1615 784.08 79.8699C784.08 80.8177 783.704 81.7268 783.035 82.3979C782.366 83.069 781.458 83.4473 780.51 83.4499Z" fill="white" fill-opacity="0.8"/>
<path d="M222.3 16.4199C221.493 16.4199 220.704 16.6592 220.033 17.1075C219.362 17.5559 218.839 18.1931 218.531 18.9386C218.222 19.6841 218.141 20.5045 218.298 21.2959C218.456 22.0874 218.844 22.8143 219.415 23.3849C219.986 23.9555 220.713 24.3441 221.504 24.5015C222.295 24.659 223.116 24.5782 223.861 24.2694C224.607 23.9606 225.244 23.4376 225.692 22.7667C226.141 22.0957 226.38 21.3069 226.38 20.4999C226.38 19.4179 225.95 18.3801 225.185 17.6149C224.42 16.8498 223.382 16.4199 222.3 16.4199ZM222.3 24.0699C221.592 24.0699 220.899 23.8597 220.31 23.4659C219.721 23.0721 219.262 22.5124 218.992 21.8576C218.721 21.2029 218.651 20.4826 218.79 19.7878C218.928 19.0931 219.27 18.4552 219.772 17.955C220.274 17.4547 220.913 17.1145 221.608 16.9775C222.303 16.8405 223.023 16.9128 223.677 17.1853C224.331 17.4578 224.889 17.9182 225.282 18.5083C225.674 19.0983 225.882 19.7915 225.88 20.4999C225.88 20.9696 225.787 21.4347 225.607 21.8684C225.427 22.3022 225.163 22.6962 224.831 23.0279C224.498 23.3595 224.104 23.6222 223.669 23.8011C223.235 23.9799 222.77 24.0713 222.3 24.0699Z" fill="white" fill-opacity="0.8"/>
<path d="M585.81 58.4799C585.812 57.6726 585.574 56.8828 585.127 56.2105C584.68 55.5382 584.044 55.0137 583.298 54.7034C582.553 54.3931 581.732 54.3108 580.94 54.4671C580.148 54.6234 579.42 55.0112 578.849 55.5814C578.277 56.1516 577.887 56.8786 577.729 57.6703C577.571 58.462 577.651 59.2829 577.96 60.029C578.268 60.7751 578.791 61.4129 579.462 61.8616C580.133 62.3104 580.923 62.5499 581.73 62.5499C582.81 62.5499 583.847 62.1215 584.611 61.3585C585.376 60.5955 585.807 59.5603 585.81 58.4799ZM581.73 62.0499C581.021 62.0519 580.328 61.8434 579.737 61.4508C579.147 61.0582 578.687 60.4991 578.414 59.8446C578.142 59.19 578.07 58.4694 578.208 57.774C578.346 57.0786 578.687 56.4398 579.189 55.9385C579.69 55.4372 580.329 55.0961 581.024 54.9583C581.719 54.8204 582.44 54.8922 583.095 55.1644C583.749 55.4366 584.308 55.897 584.701 56.4872C585.093 57.0775 585.302 57.771 585.3 58.4799C585.297 59.426 584.92 60.3325 584.251 61.0014C583.583 61.6703 582.676 62.0473 581.73 62.0499Z" fill="white" fill-opacity="0.8"/>
<path d="M660.19 101.39C660.997 101.39 661.786 101.151 662.457 100.702C663.128 100.254 663.651 99.6168 663.959 98.8713C664.268 98.1258 664.349 97.3054 664.192 96.514C664.034 95.7225 663.646 94.9955 663.075 94.4249C662.504 93.8544 661.777 93.4658 660.986 93.3083C660.195 93.1509 659.374 93.2317 658.629 93.5405C657.883 93.8493 657.246 94.3723 656.798 95.0432C656.349 95.7142 656.11 96.503 656.11 97.3099C656.11 98.392 656.54 99.4298 657.305 100.195C658.07 100.96 659.108 101.39 660.19 101.39ZM660.19 93.7399C660.898 93.7399 661.591 93.9502 662.18 94.344C662.769 94.7378 663.228 95.2975 663.498 95.9523C663.769 96.607 663.839 97.3273 663.7 98.0221C663.561 98.7168 663.22 99.3547 662.718 99.8549C662.216 100.355 661.577 100.695 660.882 100.832C660.187 100.969 659.467 100.897 658.813 100.625C658.159 100.352 657.601 99.8916 657.208 99.3016C656.816 98.7116 656.608 98.0184 656.61 97.3099C656.61 96.8403 656.703 96.3752 656.883 95.9415C657.063 95.5077 657.327 95.1137 657.659 94.782C657.992 94.4504 658.386 94.1876 658.821 94.0088C659.255 93.83 659.72 93.7386 660.19 93.7399Z" fill="white" fill-opacity="0.8"/>
<path d="M382.07 58.3199C381.262 58.318 380.472 58.5558 379.799 59.0034C379.127 59.4509 378.603 60.088 378.292 60.834C377.982 61.5799 377.901 62.4011 378.058 63.1935C378.215 63.9858 378.604 64.7137 379.175 65.2849C379.746 65.8561 380.474 66.2449 381.266 66.402C382.059 66.5591 382.88 66.4775 383.626 66.1674C384.372 65.8574 385.009 65.3329 385.457 64.6604C385.904 63.9879 386.142 63.1977 386.14 62.3899C386.137 61.3113 385.708 60.2776 384.945 59.5149C384.182 58.7522 383.149 58.3226 382.07 58.3199ZM382.07 65.9699C381.362 65.9719 380.668 65.7636 380.078 65.3715C379.488 64.9793 379.028 64.4209 378.755 63.7669C378.483 63.1129 378.411 62.3928 378.548 61.6977C378.685 61.0026 379.025 60.3637 379.525 59.8621C380.025 59.3604 380.663 59.0184 381.358 58.8795C382.053 58.7405 382.773 58.8108 383.428 59.0815C384.082 59.3522 384.642 59.811 385.036 60.4C385.43 60.9889 385.64 61.6815 385.64 62.3899C385.644 62.8618 385.555 63.3297 385.377 63.7669C385.2 64.204 384.937 64.6018 384.606 64.9373C384.274 65.2728 383.879 65.5393 383.444 65.7217C383.009 65.9041 382.542 65.9986 382.07 65.9999V65.9699Z" fill="white" fill-opacity="0.8"/>
<path d="M488.93 150C488.123 149.998 487.333 150.236 486.661 150.683C485.988 151.13 485.464 151.766 485.153 152.512C484.843 153.257 484.761 154.078 484.917 154.87C485.073 155.662 485.461 156.39 486.031 156.961C486.602 157.533 487.329 157.923 488.12 158.081C488.912 158.239 489.733 158.159 490.479 157.85C491.225 157.542 491.863 157.019 492.312 156.348C492.76 155.677 493 154.887 493 154.08C493 153 492.572 151.963 491.809 151.198C491.046 150.434 490.01 150.003 488.93 150ZM488.93 157.66C488.221 157.662 487.528 157.454 486.938 157.061C486.348 156.669 485.888 156.111 485.615 155.457C485.343 154.803 485.271 154.083 485.408 153.388C485.545 152.693 485.885 152.054 486.385 151.552C486.885 151.05 487.523 150.708 488.218 150.569C488.913 150.431 489.633 150.501 490.288 150.771C490.942 151.042 491.502 151.501 491.896 152.09C492.29 152.679 492.5 153.371 492.5 154.08C492.497 155.026 492.12 155.932 491.451 156.601C490.782 157.27 489.876 157.647 488.93 157.65V157.66Z" fill="white" fill-opacity="0.8"/>
<path d="M390.47 212.34C389.663 212.34 388.873 212.579 388.202 213.028C387.531 213.477 387.008 214.115 386.7 214.861C386.391 215.607 386.311 216.428 386.469 217.22C386.627 218.011 387.017 218.738 387.589 219.308C388.16 219.879 388.888 220.266 389.68 220.423C390.472 220.579 391.293 220.497 392.038 220.186C392.784 219.876 393.42 219.352 393.867 218.679C394.314 218.007 394.552 217.217 394.55 216.41C394.55 215.875 394.444 215.345 394.239 214.85C394.034 214.356 393.733 213.907 393.354 213.528C392.975 213.15 392.526 212.851 392.031 212.647C391.536 212.443 391.005 212.339 390.47 212.34ZM390.47 219.99C389.762 219.99 389.07 219.78 388.481 219.387C387.892 218.993 387.433 218.434 387.162 217.78C386.892 217.126 386.821 216.406 386.959 215.712C387.097 215.017 387.438 214.379 387.939 213.878C388.439 213.378 389.077 213.037 389.772 212.899C390.466 212.761 391.186 212.831 391.84 213.102C392.494 213.373 393.053 213.832 393.447 214.421C393.84 215.01 394.05 215.702 394.05 216.41C394.051 216.881 393.96 217.348 393.78 217.783C393.601 218.219 393.337 218.614 393.005 218.948C392.672 219.281 392.277 219.546 391.842 219.726C391.407 219.907 390.941 220 390.47 220V219.99Z" fill="white" fill-opacity="0.8"/>
<path d="M822.21 160C822.21 159.193 821.971 158.404 821.522 157.733C821.074 157.062 820.437 156.539 819.691 156.231C818.946 155.922 818.125 155.841 817.334 155.998C816.543 156.156 815.816 156.544 815.245 157.115C814.674 157.686 814.286 158.413 814.128 159.204C813.971 159.995 814.052 160.816 814.361 161.561C814.669 162.307 815.192 162.944 815.863 163.392C816.534 163.841 817.323 164.08 818.13 164.08C818.666 164.08 819.196 163.974 819.691 163.769C820.186 163.564 820.636 163.264 821.015 162.885C821.394 162.506 821.694 162.056 821.899 161.561C822.104 161.066 822.21 160.536 822.21 160ZM818.13 163.58C817.422 163.58 816.73 163.37 816.141 162.977C815.552 162.583 815.093 162.024 814.823 161.37C814.552 160.716 814.481 159.996 814.619 159.302C814.757 158.607 815.098 157.969 815.599 157.468C816.099 156.968 816.737 156.627 817.432 156.489C818.126 156.351 818.846 156.421 819.5 156.692C820.154 156.963 820.713 157.422 821.107 158.011C821.5 158.6 821.71 159.292 821.71 160C821.71 160.949 821.333 161.86 820.661 162.531C819.99 163.203 819.079 163.58 818.13 163.58Z" fill="white" fill-opacity="0.8"/>
<path d="M86.38 60.4299C86.38 59.6226 86.1404 58.8334 85.6917 58.1622C85.2429 57.491 84.6051 56.9681 83.859 56.6596C83.1129 56.3511 82.292 56.2708 81.5003 56.4291C80.7086 56.5873 79.9817 56.9769 79.4115 57.5485C78.8413 58.1201 78.4535 58.848 78.2972 59.6401C78.1409 60.4322 78.2231 61.2529 78.5334 61.9982C78.8438 62.7436 79.3683 63.3801 80.0405 63.8272C80.7128 64.2743 81.5026 64.5119 82.31 64.5099C83.3903 64.5073 84.4255 64.0763 85.1885 63.3114C85.9515 62.5465 86.38 61.5103 86.38 60.4299ZM82.31 63.9999C81.6015 64.0019 80.9084 63.7936 80.3183 63.4015C79.7283 63.0093 79.2679 62.4509 78.9954 61.7969C78.7229 61.1429 78.6506 60.4228 78.7876 59.7277C78.9246 59.0326 79.2647 58.3937 79.765 57.8921C80.2653 57.3904 80.9032 57.0484 81.5979 56.9095C82.2926 56.7705 83.0129 56.8408 83.6677 57.1115C84.3224 57.3822 84.8821 57.841 85.2759 58.43C85.6698 59.0189 85.88 59.7115 85.88 60.4199C85.88 61.3677 85.5042 62.2768 84.835 62.9479C84.1657 63.6189 83.2577 63.9973 82.31 63.9999Z" fill="white" fill-opacity="0.8"/>
</g>
<defs>
<clipPath id="clip0_605_1014">
<rect width="823.86" height="220.49" fill="white"/>
</clipPath>
</defs>
</svg>
