<svg width="824" height="221" fill="none" xmlns="http://www.w3.org/2000/svg"><g opacity=".8" clip-path="url(#clip0_605_1014)" fill="#fff" fill-opacity=".8"><path d="M611.66 175.7a8.245 8.245 0 00-7.62 5.08 8.238 8.238 0 005.999 11.241 8.24 8.24 0 009.851-8.081 8.249 8.249 0 00-8.23-8.24zm0 16a7.735 7.735 0 01-7.158-4.771 7.748 7.748 0 01-.445-4.473 7.748 7.748 0 012.116-3.966 7.75 7.75 0 013.963-2.121 7.743 7.743 0 019.254 7.591 7.752 7.752 0 01-7.73 7.72v.02zM40.46 151a8.236 8.236 0 00-7.613 5.087 8.237 8.237 0 001.786 8.979 8.237 8.237 0 0012.678-1.248 8.24 8.24 0 001.389-4.578 8.25 8.25 0 00-8.24-8.24zm0 16a7.743 7.743 0 01-7.15-4.778 7.74 7.74 0 1114.89-2.962 7.75 7.75 0 01-7.74 7.74zm255.81-69.94a8.24 8.24 0 108.24 8.24 8.254 8.254 0 00-8.24-8.24zm0 16a7.745 7.745 0 01-7.156-4.767 7.738 7.738 0 0110.092-10.13A7.74 7.74 0 01304 105.3a7.74 7.74 0 01-7.73 7.7v.06zM400 114.73a5.998 5.998 0 00-5.885 7.17 6.01 6.01 0 001.642 3.073 6.007 6.007 0 003.072 1.642 6.006 6.006 0 006.16-2.552A5.998 5.998 0 00400 114.73zm0 11.44a5.471 5.471 0 01-3.868-9.338 5.47 5.47 0 019.338 3.868 5.482 5.482 0 01-5.47 5.47zm66.74-114.23a5.997 5.997 0 005.543-3.704 6.005 6.005 0 00-1.3-6.539 6.007 6.007 0 00-6.539-1.3 6.001 6.001 0 002.296 11.543zm0-11.44a5.47 5.47 0 110 10.94 5.47 5.47 0 010-10.94zM132.89 14.53a5.996 5.996 0 00-5.543 3.704 6.006 6.006 0 001.3 6.539 6.004 6.004 0 006.539 1.3 6 6 0 00-2.296-11.543zm0 11.44a5.471 5.471 0 01-1.067-10.835 5.469 5.469 0 016.537 5.365 5.484 5.484 0 01-1.594 3.884A5.49 5.49 0 01132.89 26v-.03zm16.02 140.39a5.998 5.998 0 00-5.885 7.17 6.01 6.01 0 001.642 3.073 6.007 6.007 0 003.072 1.642 6.006 6.006 0 006.16-2.552 5.998 5.998 0 00-4.989-9.333zm0 11.44a5.471 5.471 0 01-3.868-9.338 5.47 5.47 0 019.338 3.868 5.482 5.482 0 01-5.47 5.47zM58.93 72a8.24 8.24 0 100 16.481 8.24 8.24 0 000-16.481zm0 16a7.74 7.74 0 117.74-7.74A7.75 7.75 0 0158.93 88zm584.4-24a8.24 8.24 0 108.24 8.24 8.25 8.25 0 00-8.24-8.24zm0 16a7.74 7.74 0 110-15.48 7.74 7.74 0 010 15.48zm-166.39 90a8.238 8.238 0 00-5.823 14.07 8.241 8.241 0 0014.063-5.84 8.24 8.24 0 00-8.24-8.23zm0 16a7.743 7.743 0 01-7.151-4.778 7.736 7.736 0 011.678-8.435 7.736 7.736 0 0111.909 1.173 7.743 7.743 0 011.304 4.3 7.742 7.742 0 01-7.74 7.67v.07zm252-2.57a4.076 4.076 0 00-3.769 2.519 4.08 4.08 0 103.769-2.519zm0 7.65a3.58 3.58 0 113.58-3.57 3.564 3.564 0 01-1.049 2.528 3.581 3.581 0 01-2.531 1.042zm.99-70.82c-.437 0-.864.13-1.228.372a2.218 2.218 0 00-.94 2.269 2.207 2.207 0 001.737 1.736 2.206 2.206 0 002.641-2.167c0-.586-.233-1.148-.647-1.563a2.213 2.213 0 00-1.563-.647zm0 3.92a1.709 1.709 0 11-.001-3.418 1.709 1.709 0 01.001 3.418zm91.72 52.29c-.437 0-.864.13-1.228.372a2.218 2.218 0 00-.94 2.269 2.207 2.207 0 001.737 1.736 2.206 2.206 0 002.641-2.167c0-.586-.233-1.148-.647-1.563a2.213 2.213 0 00-1.563-.647zm0 3.91a1.71 1.71 0 110-3.421 1.71 1.71 0 010 3.421zM677.68 78a2.21 2.21 0 100 4.422 2.21 2.21 0 000-4.422zm0 3.91a1.71 1.71 0 111.71-1.71 1.712 1.712 0 01-1.049 1.607 1.706 1.706 0 01-.661.133v-.03zm-222.82 44.93a2.215 2.215 0 002.043-1.367 2.21 2.21 0 10-2.043 1.367zm0-3.91a1.709 1.709 0 11.001 3.418 1.709 1.709 0 01-.001-3.418zm-155.67 32.65a3.37 3.37 0 10-3.37-3.37 3.378 3.378 0 003.37 3.37zm0-6.24c.568 0 1.122.168 1.594.484.472.315.84.763 1.057 1.288a2.86 2.86 0 01-.622 3.127 2.864 2.864 0 01-3.127.622 2.863 2.863 0 01-1.288-1.057 2.863 2.863 0 01.357-3.623 2.866 2.866 0 012.029-.841zM64.5 44.15a3.37 3.37 0 10-3.37-3.37 3.38 3.38 0 003.37 3.37zm0-6.24a2.87 2.87 0 110 5.741 2.87 2.87 0 010-5.741zM17.4 95.94a2.21 2.21 0 10-4.42 0 2.21 2.21 0 004.42 0zm-3.91 0a1.71 1.71 0 113.419 0 1.71 1.71 0 01-3.419 0zM255 154.6a2.212 2.212 0 10.846 4.252c.404-.168.749-.451.992-.814a2.218 2.218 0 00.204-2.074A2.211 2.211 0 00255 154.6zm0 3.92a1.709 1.709 0 111.71-1.71 1.721 1.721 0 01-1.71 1.71zM205 39.86a2.21 2.21 0 100-4.42 2.21 2.21 0 000 4.42zm0-3.86a1.71 1.71 0 110 3.42 1.71 1.71 0 010-3.42zm-59.68-7a2.21 2.21 0 100 4.42 2.21 2.21 0 000-4.42zm0 3.91a1.71 1.71 0 111.68-1.67 1.705 1.705 0 01-.472 1.23 1.722 1.722 0 01-1.208.53v-.09zm243.11 15.15a2.212 2.212 0 002.168-2.641 2.216 2.216 0 00-1.737-1.737 2.21 2.21 0 10-.431 4.378zm0-3.91a1.709 1.709 0 11-1.71 1.7 1.7 1.7 0 011.71-1.7zm19.66 14.08a2.21 2.21 0 100 4.42 2.21 2.21 0 000-4.42zm0 3.91a1.71 1.71 0 110-3.42 1.71 1.71 0 010 3.42zM597.18 80a2.213 2.213 0 00-2.168 2.641 2.216 2.216 0 001.737 1.736A2.21 2.21 0 10597.18 80zm0 3.92a1.71 1.71 0 111.71-1.71 1.719 1.719 0 01-1.71 1.69v.02zm-402.4-7.87a2.21 2.21 0 10-2.21 2.21 2.221 2.221 0 002.21-2.21zm-3.92 0a1.709 1.709 0 111.71 1.71 1.719 1.719 0 01-1.71-1.71zm197.65 68.08a2.212 2.212 0 002.178-2.639 2.219 2.219 0 00-.605-1.134 2.213 2.213 0 00-3.405.341 2.212 2.212 0 001.832 3.432zm0-3.91a1.713 1.713 0 011.223 2.916 1.708 1.708 0 01-2.923-1.206 1.708 1.708 0 011.047-1.58c.207-.086.429-.13.653-.13zm302.6-119.47a2.212 2.212 0 002.168-2.641 2.216 2.216 0 00-1.737-1.737 2.21 2.21 0 10-.431 4.378zm0-3.92a1.71 1.71 0 110 3.42 1.71 1.71 0 010-3.42zm-528.2 172.01a2.212 2.212 0 10.846 4.252c.404-.168.749-.451.992-.814a2.213 2.213 0 00-.275-2.791 2.213 2.213 0 00-1.563-.647zm0 3.91a1.71 1.71 0 110-3.421 1.71 1.71 0 010 3.421zm434.46 9.42a3.673 3.673 0 00-3.611 4.38 3.672 3.672 0 006.652 1.33 3.67 3.67 0 00-3.041-5.71zm0 6.83a3.174 3.174 0 01-2.937-1.952 3.173 3.173 0 012.311-4.328 3.173 3.173 0 013.786 3.12 3.17 3.17 0 01-3.16 3.16zm-326.74-39a3.673 3.673 0 00-3.611 4.38 3.68 3.68 0 002.881 2.889 3.676 3.676 0 004.39-3.599 3.681 3.681 0 00-3.66-3.67zm0 6.83a3.156 3.156 0 01-2.919-1.951 3.153 3.153 0 01.685-3.444 3.163 3.163 0 013.443-.685 3.165 3.165 0 011.951 2.92 3.154 3.154 0 01-.926 2.234 3.154 3.154 0 01-2.234.926zM3.66 110.24a3.67 3.67 0 10-.019 7.341 3.67 3.67 0 00.019-7.341zm0 6.83a3.154 3.154 0 01-2.92-1.951 3.16 3.16 0 116.08-1.209 3.17 3.17 0 01-3.16 3.16zm736.49 17.76a4.079 4.079 0 10-.002 8.158 4.079 4.079 0 00.002-8.158zm0 7.65a3.584 3.584 0 01-3.307-2.21 3.58 3.58 0 113.307 2.21zm40.36-66.68a4.081 4.081 0 100 8.162 4.081 4.081 0 000-8.162zm0 7.65a3.582 3.582 0 01-3.522-4.272 3.581 3.581 0 113.522 4.272zM222.3 16.42a4.081 4.081 0 100 8.162 4.081 4.081 0 000-8.162zm0 7.65a3.581 3.581 0 01-2.528-6.115 3.583 3.583 0 015.51.553c.392.59.6 1.284.598 1.992a3.57 3.57 0 01-3.58 3.57zm363.51 34.41a4.081 4.081 0 00-8.081-.81 4.078 4.078 0 004.001 4.88 4.078 4.078 0 004.08-4.07zm-4.08 3.57a3.582 3.582 0 01-3.522-4.276 3.577 3.577 0 012.816-2.816 3.581 3.581 0 014.276 3.522 3.582 3.582 0 01-3.57 3.57zm78.46 39.34a4.076 4.076 0 003.769-2.519 4.082 4.082 0 00-.884-4.446 4.084 4.084 0 00-4.446-.885 4.076 4.076 0 00-2.519 3.77 4.08 4.08 0 004.08 4.08zm0-7.65a3.582 3.582 0 012.528 6.115 3.584 3.584 0 01-5.51-.553 3.58 3.58 0 01-.598-1.992 3.57 3.57 0 013.58-3.57zM382.07 58.32a4.083 4.083 0 00-3.778 2.514 4.081 4.081 0 103.778-2.514zm0 7.65a3.582 3.582 0 01-3.315-2.203 3.584 3.584 0 012.603-4.888 3.58 3.58 0 014.282 3.51 3.57 3.57 0 01-1.034 2.548A3.585 3.585 0 01382.07 66v-.03zM488.93 150a4.08 4.08 0 10-.018 8.16 4.08 4.08 0 00.018-8.16zm0 7.66a3.581 3.581 0 01-.712-7.091 3.594 3.594 0 012.07.202 3.587 3.587 0 012.212 3.309 3.58 3.58 0 01-3.57 3.57v.01zm-98.46 54.68a4.079 4.079 0 104.08 4.07 4.077 4.077 0 00-1.196-2.882 4.066 4.066 0 00-2.884-1.188zm0 7.65a3.584 3.584 0 01-3.308-2.21 3.588 3.588 0 01.777-3.902 3.578 3.578 0 013.901-.776 3.585 3.585 0 011.165 5.846A3.584 3.584 0 01390.47 220v-.01zM822.21 160a4.076 4.076 0 00-2.519-3.769 4.081 4.081 0 00-5.563 2.973 4.081 4.081 0 108.082.796zm-4.08 3.58a3.584 3.584 0 01-3.307-2.21 3.58 3.58 0 113.307 2.21zM86.38 60.43a4.08 4.08 0 10-8.161 0 4.08 4.08 0 008.161 0zM82.31 64a3.58 3.58 0 11-.02-7.161 3.58 3.58 0 01.02 7.16z"/></g><defs><clipPath id="clip0_605_1014"><path fill="#fff" d="M0 0h823.86v220.49H0z"/></clipPath></defs></svg>