<svg width="171" height="51" fill="none" xmlns="http://www.w3.org/2000/svg"><g opacity=".3" fill="#fff"><path fill-rule="evenodd" clip-rule="evenodd" d="M145.996 1.229h-5.773l-13.294 20.694h3.362c1.914 0 2.095-.934 4.521-2.276 3.889-2.035 10.882-1.733 10.882-1.733a1.714 1.714 0 00-.934 1.763l.407 2.246H151l-5.004-20.694zm-9.707 13.987a10.642 10.642 0 001.507-1.809l4.266-6.556 1.386 6.722a15.3 15.3 0 00-7.159 1.643z"/><path d="M19.405 1.983a12.178 12.178 0 00-5.456-1.16A13.746 13.746 0 007.242 2.42a11.56 11.56 0 00-4.597 4.43 12.495 12.495 0 00-1.643 6.406 9.043 9.043 0 001.25 4.747A8.591 8.591 0 005.84 21.23c1.71.8 3.583 1.192 5.471 1.145a13.837 13.837 0 006.707-1.597 11.484 11.484 0 004.522-4.432 12.555 12.555 0 001.643-6.405 8.848 8.848 0 00-1.251-4.733 8.485 8.485 0 00-3.527-3.225zM17.58 13.92a6.316 6.316 0 01-2.276 2.622 6.03 6.03 0 01-3.436.98 4.99 4.99 0 01-3.602-1.25 4.522 4.522 0 01-1.342-3.392 8.275 8.275 0 01.799-3.633 6.42 6.42 0 012.321-2.592c1.024-.659 2.22-1 3.437-.98a4.929 4.929 0 013.602 1.266 4.521 4.521 0 011.28 3.362 7.973 7.973 0 01-.783 3.617zm24.282 1.567a8.23 8.23 0 003.572-3.014 8.168 8.168 0 001.267-4.522 6.03 6.03 0 00-2.186-4.928 9.812 9.812 0 00-6.225-1.794h-8.772l-4.145 20.694h5.863l1.07-5.426h4.145a12.923 12.923 0 005.411-1.01zm-7.43-9.63h3.09a3.964 3.964 0 012.411.632 2.261 2.261 0 01.844 1.87 3.255 3.255 0 01-1.055 2.607c-.856.67-1.93.997-3.014.92h-3.482l1.206-6.03zm16.203-4.613l-.95 4.642h6.36l-2.713 13.55-.09.407-.422 2.125h5.863l1.085-5.38.06-.332 2.08-10.37h6.346l.95-4.642h-18.57zm22.532 0l-2.095 10.43-.03.226-2.02 10.068h5.863L77.342 9.67l.045-.21 1.643-8.215h-5.863zm19.639 11.982L87.938 1.245h-4.763L79.03 21.968h5.396l2.186-10.927 3.768 8.878h2.577l6.888-8.878-2.125 10.927h5.426l4.009-20.347.075-.377h-5.004l-9.42 11.982zm21.915.423h9.239l.859-4.386h-9.209l.679-3.497h10.445l.919-4.522h-16.218l-4.144 20.724H123.9l.95-4.536h-10.867l.738-3.783zm46.151 3.662l3.195-16.067h-5.863l-4.145 20.724h15.751l.949-4.657h-9.887zM3.184 34.096a4.56 4.56 0 01-1.272-.176c-.405-.117-.73-.267-.976-.448l.528-1c.256.187.544.33.864.432.32.101.648.152.984.152.357 0 .64-.059.848-.176.208-.117.312-.277.312-.48 0-.165-.083-.29-.248-.376-.165-.09-.43-.187-.792-.288a8.792 8.792 0 01-.888-.304 1.69 1.69 0 01-.6-.448c-.165-.197-.248-.459-.248-.784 0-.379.104-.712.312-1 .213-.288.512-.51.896-.664.39-.155.84-.232 1.352-.232.379 0 .736.043 1.072.128.336.08.624.197.864.352l-.488.992a2.23 2.23 0 00-.704-.32 2.954 2.954 0 00-.816-.112c-.368 0-.659.064-.872.192-.213.128-.32.293-.32.496a.41.41 0 00.136.312c.09.08.205.147.344.2.139.048.333.107.584.176.357.096.65.195.88.296.23.096.424.24.584.432.165.187.248.435.248.744 0 .384-.107.72-.32 1.008-.213.283-.515.504-.904.664-.39.155-.843.232-1.36.232zM16.118 28.4c.698 0 1.237.155 1.616.464.384.304.576.73.576 1.28 0 .47-.112.88-.336 1.232a2.118 2.118 0 01-.944.8c-.406.187-.886.28-1.44.28h-1.248L14.038 34h-1.304l1.12-5.6h2.264zm-.472 3c.432 0 .765-.099 1-.296.234-.197.352-.48.352-.848 0-.267-.091-.467-.272-.6-.176-.133-.432-.2-.768-.2h-1.016L14.55 31.4h1.096zm12.25 2.696c-.56 0-1.044-.101-1.455-.304a2.2 2.2 0 01-.944-.856 2.443 2.443 0 01-.328-1.272c0-.635.144-1.205.432-1.712a3.173 3.173 0 011.224-1.208c.528-.293 1.13-.44 1.808-.44.56 0 1.045.101 1.456.304.41.203.725.488.944.856.219.368.328.792.328 1.272a3.4 3.4 0 01-.44 1.72 3.117 3.117 0 01-1.224 1.2c-.523.293-1.123.44-1.8.44zm.113-1.104c.41 0 .77-.099 1.08-.296.31-.197.547-.461.712-.792.165-.33.248-.696.248-1.096 0-.427-.133-.765-.4-1.016-.267-.256-.643-.384-1.128-.384-.41 0-.77.099-1.08.296-.31.197-.547.461-.712.792-.165.33-.248.696-.248 1.096 0 .427.133.768.4 1.024.267.25.643.376 1.128.376zm15.726-2.856c0 .523-.141.97-.424 1.344-.283.373-.675.637-1.176.792L43.11 34h-1.368l-.88-1.568h-1.104L39.447 34h-1.304l1.12-5.6h2.28c.693 0 1.232.152 1.616.456.384.304.576.73.576 1.28zM41.063 31.4c.432 0 .765-.099 1-.296.24-.197.36-.48.36-.848 0-.267-.09-.467-.272-.6-.181-.133-.44-.2-.776-.2H40.35l-.392 1.944h1.104zm11.349-1.944H50.62l.216-1.056h4.88l-.216 1.056h-1.784L52.804 34h-1.296l.904-4.544zM76.615 28.4l-1.12 5.6H74.43l-2.088-3.504L71.639 34h-1.28l1.12-5.6h1.072l2.088 3.512.696-3.512h1.28zm9.245 5.696c-.704 0-1.257-.173-1.656-.52-.4-.352-.6-.832-.6-1.44 0-.176.02-.376.064-.6l.623-3.136h1.305l-.624 3.112a2.668 2.668 0 00-.048.472c0 .336.09.59.271.76.187.165.457.248.809.248.394 0 .709-.117.944-.352.234-.235.405-.61.512-1.128l.624-3.112h1.272l-.632 3.192c-.342 1.67-1.297 2.504-2.865 2.504zm12.034-4.64h-1.792l.216-1.056h4.88l-.216 1.056h-1.784L98.286 34H96.99l.904-4.544zm14.874.68c0 .523-.142.97-.424 1.344-.283.373-.675.637-1.176.792l.976 1.728h-1.368l-.88-1.568h-1.104L108.48 34h-1.304l1.12-5.6h2.28c.693 0 1.232.152 1.616.456.384.304.576.73.576 1.28zm-2.672 1.264c.432 0 .765-.099 1-.296.24-.197.36-.48.36-.848 0-.267-.091-.467-.272-.6-.182-.133-.44-.2-.776-.2h-1.024l-.392 1.944h1.104zm10.483-3h1.304l-1.12 5.6h-1.304l1.12-5.6zm9.969 1.056h-1.792l.216-1.056h4.88l-.216 1.056h-1.784L130.94 34h-1.296l.904-4.544zm10.401-1.056h1.304l-1.12 5.6h-1.304l1.12-5.6zm10.809 5.696c-.56 0-1.045-.101-1.456-.304a2.2 2.2 0 01-.944-.856 2.44 2.44 0 01-.328-1.272c0-.635.144-1.205.432-1.712a3.167 3.167 0 011.224-1.208c.528-.293 1.131-.44 1.808-.44.56 0 1.045.101 1.456.304a2.2 2.2 0 01.944.856c.219.368.328.792.328 1.272a3.4 3.4 0 01-.44 1.72 3.117 3.117 0 01-1.224 1.2c-.523.293-1.123.44-1.8.44zm.112-1.104c.411 0 .771-.099 1.08-.296a1.96 1.96 0 00.712-.792 2.42 2.42 0 00.248-1.096c0-.427-.133-.765-.4-1.016-.267-.256-.643-.384-1.128-.384-.411 0-.771.099-1.08.296a1.963 1.963 0 00-.712.792 2.42 2.42 0 00-.248 1.096c0 .427.133.768.4 1.024.267.25.643.376 1.128.376zm16.39-4.592l-1.12 5.6h-1.064l-2.088-3.504-.704 3.504h-1.28l1.12-5.6h1.072l2.088 3.512.696-3.512h1.28z"/></g></svg>