<svg width="1171" height="710" fill="none" xmlns="http://www.w3.org/2000/svg"><mask id="a" style="mask-type:alpha" maskUnits="userSpaceOnUse" x="0" y="0" width="1172" height="710"><path d="M1000.12 709.107c-104.342-2.257-282.834-7.883-412.682-9.853-330.144-4.927-374.491 14.779-485.737 3.202-77.502-8.069-85.265-75.452-93.079-155.544-8.788-89.522-12.08-278.408 0-386.817C18.928 67.046 38.022-5.795 285.63.364 482.704 5.26 964.392 1.97 964.392 1.97c169.998 0 188.468 43.164 197.058 122.774 12.74 117.473 12.74 324.439-.06 450.09-10.74 104.567-46.31 136.755-161.27 134.273z" fill="#fff"/></mask><g mask="url(#a)"><path fill="#44D6FF" d="M-6.148 0h535.986v717.275H-6.148z"/><path fill="url(#paint0_linear_9504_69)" fill-opacity=".8" d="M-6.148 0h535.986v717.275H-6.148z"/></g><defs><linearGradient id="paint0_linear_9504_69" x1="261.845" y1="664.144" x2="261.845" y2="265.658" gradientUnits="userSpaceOnUse"><stop offset=".006" stop-color="#fff"/><stop offset="1" stop-color="#fff" stop-opacity="0"/></linearGradient></defs></svg>